<svg xmlns="http://www.w3.org/2000/svg" viewBox="0 0 150 250"><title>Artboard 10</title><g id="Layer_4" data-name="Layer 4"><g id="UVcSmF"><path d="M133.69,179.43l-2.21-.24,1,1.9-2.81-.88.89,2.45-5.11-3.41c.67-4.3-3.06-7.09-6.77-10.14-6.4-5.26-12.49-10.88-18.81-16.24-1.33-1.13-3.06-1.79-6-3.44,0,3.91-.69,7,.12,9.63,3.52,11.5-1.53,19.61-9.84,26.51-2.44,2-5.59,3.25-7.88,5.4a49.84,49.84,0,0,0-6.37,8c-2.35,3.36-4.26,7-6.74,10.3-3.39,4.46-7.4,8.46-10.63,13-1.78,2.5-2.29,5.87-3.76,8.63a43.43,43.43,0,0,1-4.36,5.93c-.85,1.12-1.76,2.19-2.61,3.23-4.61-10.58-2.14-18.32,6.81-25.52,4.09-3.3,7-7.8,6.47-14.23-.45-4.92,1-10.17,2.38-15.05s3.77-9.52,5.75-14.37l-4.43-4.72c1.59-2.64,3-5.23,4.68-7.65a12.29,12.29,0,0,1,3.6-3.65c2.78-1.62,2.73-3,1-5.59a109.48,109.48,0,0,1-8.37-14.9c-.63-1.38.32-4.23,1.49-5.58,3.86-4.42,7-9,8-15,.77-4.7,7.17-8.59,11.21-6.4,2.14,1.16,3.09,4.79,4.18,7.46a10.82,10.82,0,0,1,.66,5.28,8.78,8.78,0,0,1-2,4.72c-2.64,2.78-1.79,4.88,1,6.26,8.91,4.33,15.11,12.09,22.94,17.78a13.76,13.76,0,0,1,2.06,2c5.24,6,10.39,12.12,15.71,18.07,3,3.32,6.23,6.4,9.35,9.58Z"/></g></g></svg>