<svg xmlns="http://www.w3.org/2000/svg" viewBox="0 0 150 247.99"><title>Artboard 11</title><g id="Layer_4" data-name="Layer 4"><g id="UVcSmF"><path d="M54.75,156.59l-10.81-.72c1.16-2.69,2.22-4.88,3-7.15.38-1.07.77-2.59.3-3.4-1.5-2.58-.4-4.19,1.51-5.7,10.51-8.3,15.72-19.66,18.88-32.29,1.42-5.71,2-11.78,6.61-16.34,1-.94.4-3.38-.42-5.35a7.63,7.63,0,0,0,1.45-1.38c.51-.82,1.35-2,1.1-2.59s-1.68-.87-2.53-1.38c-1.4-.84-3.74-1.63-3.88-2.7-.22-1.55.91-3.49,1.92-5,.82-1.16,2.47-1.71,3.47-2.79,2.81-3,6-4.39,10.05-2.8,4.47,1.75,7.34,5.27,7.27,9.61,0,2.54.07,5.38-1,7.53-1.55,3.11-.32,5.16,1.1,7.59,2.38,4.06,4.58,8.23,6.88,12.35a6.47,6.47,0,0,0,.89,1c3-3.43,6.17-6.68,8.8-10.33,1-1.44,1.26-3.82,1.09-5.7C110.17,86,109.11,83,113,81.4a6,6,0,0,1,2.52,7.71,170.3,170.3,0,0,1-9.2,20.87c-3.19,5.82-5.6,5.68-10.13.84-1.61-1.71-3.24-3.4-5.35-5.62a29.9,29.9,0,0,1-1.26,4.57c-1.17,2.55-1.32,6.19-5.62,5.84-.34,0-.91.65-1.11,1.12-2.58,6.22-5.37,12.38-7.46,18.76-.47,1.42,1.08,4.12,2.46,5.44,7.35,7,14.26,14.52,17.6,24.23.9,2.63-1.09,6.79-2.78,9.62-1.32,2.21-4.23,3.48-6.46,5.14-4.63,3.44-5.2,8-1.5,12.29.82.94,1.71,1.83,2.49,2.81,2,2.45,2,8,0,10a3.18,3.18,0,0,1-2.93.56c-7.31-4.54-14.52-9.24-21.75-13.9l.65-1.48h3.46c1.47-2.57,2.28-5,3.9-6.66,5-5.09,10.31-9.88,16-15.29L68.12,154.4c.44,16.18-6.44,30.13-8.36,45-.45,3.49.89,7.21,1.44,10.82.4,2.59.87,5.18,1.3,7.76.28,1.64.12,3.51.89,4.86,2.19,3.82,7.57,5.87,5.43,12.16-2.89,1.86-19.47-.65-23.9-4.54l5.16-1c-2.29-4.88-1.13-8.93,1.66-13.17,1.44-2.21,1.44-5.57,1.5-8.42a50,50,0,0,0-.83-10.36c-1-5,.34-9.59,2.1-14.18a17.31,17.31,0,0,0,1.55-6.37C55.85,170.3,55.24,163.69,54.75,156.59ZM60.09,233l.26-.93c-1.43-1.17-2.71-2.77-4.36-3.38-1.12-.41-2.75.55-4.16.89.69.86,1.22,2.23,2.08,2.49A39.53,39.53,0,0,0,60.09,233Zm8.78-40.56,6.87,5.69C75.49,194.31,74.11,191.86,68.87,192.4Z"/></g></g></svg>