<svg xmlns="http://www.w3.org/2000/svg" viewBox="0 0 150 250"><title>Artboard 12</title><g id="Layer_4" data-name="Layer 4"><g id="UVcSmF"><path d="M95.15,95.18c-.51,3.67-1.74,7.09-1.17,10.18.47,2.52,3.09,4.64,5,7.3l-4.65.53c1.25,4.55,2.22,9,3.68,13.23,5.12,14.88,5.54,29.61-.94,44.22-3,6.71-3.74,13.86-4.12,21.05a8.77,8.77,0,0,0,1,4.81c2.24,3.65.86,7.14-.27,10.53-.16.5-3.71.78-4.67,0-6.52-5.53-8-13.76-5-21.82,1.62-4.51,1.94-9.47,3.1-14.17.85-3.46,1.52-7.18,3.31-10.15,2.92-4.84,2.35-9.24-.09-13.73-2-3.76-4.35-7.37-6.54-11l-1.2-.05q-.87,11.15-1.74,22.3c-.43,5.65-1,11.3-1.22,17-.25,6.59-.4,13.2-.11,19.78.09,2,2.08,3.86,2.67,5.94.53,1.84,1,4.21.23,5.72-.43.86-3.56,1.06-5.12.52a66.48,66.48,0,0,1-9.68-4.62,2.72,2.72,0,0,1-1.17-2.25c1.4-6.66,3.24-13.24,4.38-19.95.6-3.48,0-7.17,0-10.76,0-3-.51-6.25.35-9,1.91-6.15,1.23-12-.33-18-1.26-4.83-2.23-9.74-3.41-14.59-1.29-5.31.33-10.09,1.22-15.48.26-1.55-1.91-2.24-4-3.19a69.86,69.86,0,0,1-8-4c-1.24-.75-2.74-1-5-1.83,1.55-.6,2.18-1.11,2.65-1,4.49,1.12,9,2.29,13.43,3.58,3.08.89,5.34.41,5.57-3.22.2-3.24,0-6.5,0-10.12-6.21,3.59-9.45,2-10.79-4.52C61.19,82.1,60,76.05,63.57,70.09c1.82-3,4.06-4,7.47-3.9,2.22,0,5.68-.4,6.43-1.79,1.32-2.44.62-5.49-2.24-7.59s-3.42-4.89-2-8.14c2.45-5.48,6-8.08,10.57-7.62,3.82.38,5.71,2.63,6.84,6.23,2.06,6.55-1.08,12.09-3,18.35l7.45,2c2.77-3.19,5.55-3.2,7.07,1.11,1.65,4.69,2.18,9.86,2.59,14.87.21,2.67-.95,5.43-1.35,8.17C102.53,97.71,101.36,98.32,95.15,95.18Z"/></g></g></svg>