<svg xmlns="http://www.w3.org/2000/svg" viewBox="0 0 150 250"><title>Artboard 14</title><g id="Layer_4" data-name="Layer 4"><g id="UVcSmF"><path d="M88.29,190.92c-1.65-3.1-3.84-6-4.81-9.35s-.74-7-1-10.57l-1.22-.37c-1.34,2.14-3.17,4.12-3.94,6.45-2.4,7.29-2.24,7.35-9.15,13.88-.65-7.13-2.32-13.51-1.35-19.46.52-3.18,5.25-6.19,8.7-8.25,3.68-2.21,4.4-5.09,3.22-8.38A75.88,75.88,0,0,1,74,127.59c0-3.32-1.6-6.69-2.56-10-3-10.35-7.44-20.4-5.84-31.64.13-1-1.16-2.37-2.1-3.22-2.68-2.4-5.61-4.52-8.28-6.94-3.63-3.3-2.87-6.43,1.71-7.94A17.67,17.67,0,0,0,61.07,66c4.23-2.76,4.29-3.65.73-7.9-3.26,2.17-6.38,4.76-9.92,6.42-2.28,1.07-5.19.79-7.81,1.11,0-2.83-.86-6.07.22-8.41,3.06-6.65,6.87-13,10.49-19.37C57,34,60.21,32.55,64.62,34a6.93,6.93,0,0,0,4.06.27,7.54,7.54,0,0,0,3.72-2.76c.39-.6-.57-2.32-1.25-3.3-1.14-1.63-2.61-3-3.82-4.61-.58-.75-1.46-1.89-1.24-2.52,1.19-3.46,2.08-7.29,4.28-10,1.38-1.72,4.9-2.44,7.41-2.34a8.18,8.18,0,0,1,7.89,7.79c.21,4.47-.66,9-1,13.49-.08,1.24-.16,2.83.52,3.65.52.63,2.31.64,3.36.33,4.64-1.38,7.83,0,8.66,5,.87,5.16.86,10.47,1.15,15.72.16,3,.11,6.06.24,9.09.19,4.39-1.29,5.55-7,4.87.58,1.53,1.06,2.83,1.47,3.91,3.4-.86,6.3-1.73,9.27-2.28,1.22-.23,2.57.25,3.86.4-.55,1.3-.79,2.92-1.72,3.82a21.85,21.85,0,0,1-5.43,3.73c-1.92.94-2.18,1.93-1.58,3.91,4.86,15.87,2.51,31.24-3.27,46.4A21.38,21.38,0,0,0,92.57,136a29.23,29.23,0,0,1-4.84,16.53c-2.71,4.09-2,7.64.93,10.94a10.61,10.61,0,0,1,2.61,8.83c-.23,2,.23,4.13.07,6.17-.33,4-.88,8.06-1.33,12.09ZM51.58,57.58c11.27-3,11.77-4.77,8.54-11.29ZM84,100.33l-.89-.06v22.12H84Z"/></g></g></svg>