<svg xmlns="http://www.w3.org/2000/svg" viewBox="0 0 150 250"><title>Artboard 15</title><g id="Layer_4" data-name="Layer 4"><g id="UVcSmF"><path d="M42.1,80c2.09,3,4.71,2.65,7.88,2.16s6.6.34,9.89.82c2.69.4,4.58-.11,4.14-3.26-.7-5-1.77-10-2.46-15a134.93,134.93,0,0,1-1.65-16c0-3.73,3.48-4.88,9.79-2.74-1.11-2.31-1.56-3.92-2.51-5.13C65,38.13,65,31.26,67.5,27.52c2.21-3.33,5.27-4.55,9-3a7.54,7.54,0,0,1,3.9,3.35,49.73,49.73,0,0,1,2.46,9.47,2.91,2.91,0,0,1-1,2.53c-4,1.52-1.88,3.89-1.17,6.23A42.44,42.44,0,0,1,81.48,52c2,.2,4.63,1,7.12.62,5.09-.77,8.55.15,10,4.93,1.92,6.44,7.16,10.17,10.65,15.29a29.87,29.87,0,0,1,3.57,8.1c.31,1-.65,3.43-1.21,3.49a5.61,5.61,0,0,1-4.06-1.32c-2.55-2.53-4.76-5.41-7.09-8.16a8.61,8.61,0,0,0-3.19-2.74c.14,1.12.28,2.23.52,4.24l-7.6-3.23c1.54,7.54-3.65,14,0,21.6,1.47,3,.46,7.45.06,11.18a184.1,184.1,0,0,1-2.84,19.31c-1.52,7-2.25,13.84.65,20.65a3.58,3.58,0,0,1,.34,1.62c-1,9.5,3.06,17.34,8.37,24.68a58.33,58.33,0,0,0,5.67,6c2,2.09,3.68,4.39,2.15,7.39-1,1.88-5.89,1.85-8.37-.15-6.33-5.09-11.1-11.18-11.92-19.67a39.15,39.15,0,0,0-1.45-5.73c-2,5.32-3.86,10.17-5.67,15a9.45,9.45,0,0,0-.85,3.19c0,4,.83,8.09.21,12s-2.6,7.5-3.92,11c-7.33-8-4.68-16.76-1.63-25.56a12.39,12.39,0,0,0,1-3.55q.58-20.56,1-41.12a6,6,0,0,0-1.42-3.63c-2.36-2.72-4.88-5.31-7.48-7.81-6.55-6.29-7.05-7.7-5.24-17.44-5.68-.86-11.32-2.1-17-2.42-3.47-.2-4.33-1.85-4.52-4.59A20.77,20.77,0,0,1,42.1,80Z"/></g></g></svg>