<svg xmlns="http://www.w3.org/2000/svg" viewBox="0 0 150 250"><title>Artboard 16</title><g id="Layer_4" data-name="Layer 4"><g id="UVcSmF"><path d="M58.93,83.57c-.94-3.48-2-6.73-2.7-10-1.25-5.65.89-10,5.9-12.43,5.61-2.75,9.69-1.93,13.73,2.76,5.67,6.6,5.47,7.85-3.12,14.66,1.82,1.61,3.31,4,5.25,4.45a48.65,48.65,0,0,1,17.53,8.18c3.83,2.71,8.26,4.54,12.15,7.17,5.51,3.73,5.78,6.53,1.56,11.58s-8.65,10.1-13,15.13c.83,3.08,2.26,6.33,2.46,9.67.25,4-2.29,7-5.16,9.93-5.66,5.82-10.76,12.19-16.1,18.34,3.94,2.89,7.23,5.37,10.6,7.74a11,11,0,0,0,4,2.09c5.86,1,11.11,2.88,14.13,8.56.11.21.72.17,2,.42L96.37,195.87l-1.67-.46c-.48-2.38-1.53-4.81-1.32-7.13.5-5.53-.71-8-6-9.77-2.48-.83-5.06-1.38-8.24-2.24.72,6.91-.53,13.44,2.42,19.8,2.32,5,3.23,10.43.34,16.14.61.5,1.5,1.23,3.48,2.83-8.58,0-16,.13-23.43-.09-1.74-.06-5.33-.23-2.15-3.7-2.12-6.62,3.44-5.61,6.76-6.74,5-1.71,6.65-3.61,5.8-9-1.12-7.1-2.8-14.13-4.59-21.1-.36-1.39-2.13-2.71-3.56-3.49-3.14-1.73-6.65-2.82-9.72-4.66-6.16-3.7-6.89-7.28-2.58-13,6-7.93,12.24-15.67,18.75-24-5.15-1.87-10.62,1.59-17.12.07l7.3-2.14-6.24-3.12a30.56,30.56,0,0,0,4.92-.45c.8-.21,1.45-1,2.17-1.56-.77-.59-1.46-1.51-2.32-1.71-6-1.44-12.1-2.59-18.08-4.13-2-.52-5.37-1.26-2-4.53-1.46-7.7,5.69-12.23,7-19,1.07-5.56,4.69-9,10.94-8.66A5,5,0,0,0,58.93,83.57Zm42.26,21.62L86.55,97.36c-2.47,9.45.53,16.68,4.45,23.7l1.74.4Zm-54.57,2.25c6.57,8.35,8.75,8.48,13.67,1.3L55.74,95.48ZM80.09,212.25c-4-7.62-7.88.37-11.75-.65C71.08,214.34,76.34,214.51,80.09,212.25Zm20.56-23.75,5.49-5.75C101.73,182.81,98.81,183,100.65,188.5ZM68.37,154.81l-.76-.84-6.56,6C67.43,162,66.44,156.8,68.37,154.81Z"/></g></g></svg>