<svg xmlns="http://www.w3.org/2000/svg" viewBox="0 0 150 250"><title>Artboard 17</title><g id="Layer_4" data-name="Layer 4"><g id="UVcSmF"><path d="M2.11,112.28c-.09-1.53-.18-3-.31-5.17l9.14-1.39a48.88,48.88,0,0,0,.28-5c-.16-5.71,2.12-8.55,7.72-9.37,5.31-.77,8.33,1.35,9.58,6.77.16.67,0,1.63.42,2,3.38,3,2.2,5-.94,7.22-.72.49-1.29,2.57-.89,3,1,1.17,3,2.81,3.82,2.46,1.35-.56,3-2.63,2.92-4-.24-4,2.54-5.74,5.17-6.68a39.54,39.54,0,0,1,13-1.84,28.48,28.48,0,0,1-3.23,2.27c-4.5,2.35-7.57,5.41-6.65,11.07a5.24,5.24,0,0,1-.94,3.94c-3.15,3.31-1.41,5.7.76,8.57,4.31,5.68,8.4,11.6,15.87,13.34a39.81,39.81,0,0,1,18.51,9.67c3.81,3.67,8.17,5.44,12.36,8,7,4.29,14.34,5.16,22.37,3.94,3.41-.51,7.14.48,10.61,1.29,4.32,1,8.07,1.56,12.14-1.54,2.13-1.63,5.89-1.14,8.91-1.61l.35,1,1.79-3c.27.2.61.31.63.48.95,6.72,2,13.43,2.7,20.17.15,1.43-1.09,4.3-1.38,4.26-2.56-.36-6.83-.64-7.29-2-3.62-11.14-13.35-9.32-21.42-10.42-4.59-.63-9.4.27-14.11.62a56.09,56.09,0,0,1-23.73-3.33c-3.38-1.25-7-1.88-10.33-3.17-6.23-2.4-10.45.9-14.72,4.57a54.67,54.67,0,0,1-5.15,3.6c-1.59,1.81-2.72,3.7-4.37,4.83-3.43,2.33-7.28,4-10.68,6.4-4.08,2.84-4.4,5.23-1.33,9a23.45,23.45,0,0,1,4.93,12.51c.4,3.28,2.38,6.36,3.54,9.56,1.68,4.65,3.52,9.27,4.75,14,.41,1.59-.84,3.62-1.5,6.1l2.13,1.42c-.12.18-.24.56-.4.57-7.3.54-14.61,1.16-21.92,1.49-1.79.08-2.22-.36-2.44-3.2-.46-6.16,3.57-6.17,6.89-7.79,5.21-2.54,6.38-7.32,3.33-13.44-4.07-8.18-8.37-16.26-12-24.61-.86-2-.33-5.29.84-7.2a115.47,115.47,0,0,1,10.34-14.08,8,8,0,0,0,1.9-8c-.7-2.48-.52-4.41,1.94-6.07,2.23-1.5,2.89-3.47.19-5.67s-4.71-5.3-8.91-5.48c-1.2-.06-2.69-2.24-3.39-3.76-2.82-6-5.32-12.16-8-18.21a25.91,25.91,0,0,0-3.29-5.75C9.24,110.62,6.93,110.22,2.11,112.28ZM31.78,234.71l.12,1.53L44,235.37l-3.53-4.8ZM144.22,173c2.59-3.22,2-8.3-.86-11.41C137.9,165.9,145.19,169.07,144.22,173Z"/></g></g></svg>