<svg xmlns="http://www.w3.org/2000/svg" viewBox="0 0 150 250"><title>Artboard 18</title><g id="Layer_4" data-name="Layer 4"><g id="UVcSmF"><path d="M83.14,105.43c1.54.1,2.56.46,3.32.16,7.2-2.83,14.43-5.62,21.48-8.79,2.45-1.09,4.4-3.27,6.66-4.82,6.38-4.4,12.61-9.06,19.32-12.9,2.06-1.17,5.56-.5,8.18.17,3,.77,5.85,2.46,9.54,4.11a15.08,15.08,0,0,0-3.4,1,7.65,7.65,0,0,0-1.57,2.06l-9.73-4.61-1.39-1.62c-2,2.68-3.85,5.46-6,8a51,51,0,0,1-20.83,15.48c-5.8,2.26-10.86,5.64-13.47,11.7-.33.76-1.11,1.74-.88,2.26,2,4.52-.61,8.72-.63,13,0,3.4,1.34,6.89,2.51,10.19,1.64,4.61,4.58,9,5.2,13.66.39,3-.42,7.19-3.88,9.55a19.1,19.1,0,0,0-2.95,3.29l1.24,2.75-3.36,1.76a6.37,6.37,0,0,0,.27,1.58c1.17,2.66,2.5,5.27,3.6,8,3.33,8.13,6.46,16.35,9.92,24.42a54.16,54.16,0,0,0,5.11,9c3.18,4.7,7,9,9.76,13.93,1.52,2.77,1.29,6.51,1.91,10.15-6.92-1.88-10.52-5.9-13-11.78-3.37-7.86-6.87-15.81-13.49-21.74a4.62,4.62,0,0,1-1.65-2.35C93.66,194,85,190.64,80.46,184.16a68.21,68.21,0,0,1-3.71-6.93c3,0,4.36-.94,2.8-3.35s-2-6.09-6.06-6.06A2,2,0,0,1,72,166.54c-1.43-6.37-4.63-12.68-.26-19.25.78-1.18.53-3.46,0-5-1.59-4.86-3.57-9.6-5.33-14.42-2.07-5.66-7.58-9.62-13.59-8.83-11.44,1.5-22.4.46-32.85-4.73-2.36-1.18-4.22-.92-5.82,1.82s-4,4.67-6,7l-.92-.71,2.88-4.85-11.38,1.84-.42-1c.67-.72,1.2-1.85,2-2.1,8.22-2.62,15.69-8,25.2-5.71,6,1.41,12.23,1.57,18.37,2.21a22.05,22.05,0,0,0,4.14-.08c7-.66,14-1.44,21-2,3.72-.31,5.65-3.17,3.29-6.23-2.93-3.77-2.05-7.8-2-11.73.1-4.92,2.94-7.66,7.67-8.37,4.31-.65,5.81,1.4,8.76,5.83,3.81,5.74.42,8.91-2.6,12.69A13,13,0,0,0,83.14,105.43Z"/></g></g></svg>