<svg id="Layer_2" data-name="Layer 2" xmlns="http://www.w3.org/2000/svg" viewBox="0 0 500 500"><title>Artboard 4 copy 2ixd_display</title><path d="M382.15,203.06c-3.07-8.72-6.32-17.3-15-22.26-3.3-1.89-8.69-7.15-8.39-11.18.52-7-5.18-26.11-9.8-37.78-2.4-6.08-10.87-27.7-15-31.84-10.58-10.67-17.27-23.69-21.13-37.23C307.3,43.2,292.33,33.51,278,22.51c-1-.75-2.07-1.54-3.24-.74s-.84,2.24-.25,3.26c3.64,6.29-1.38,7.76-6.67,9.28A24,24,0,0,0,264,35.86c-1.23.6-3.42,1-2.9,2.88.23.86,1.69,1.71,2.74,2,4,1,8,2.27,12,2.51,8.32.5,12.93,4.9,14.32,12.72,2.63,14.83,10.13,32.16,10.12,40.6,0,1,1.28,5.65,2.19,6.09,9.38,4.59,12.89,14,18.28,21.88,3.39,5,4.74,10.56,2.52,15.77s-8.23,4.19-12.91,4.05c-25.77-.74-51.54-1.7-75.37-2.52-18.83.11-35.61.65-52.26,4.27-9.13,2-18.31,4.82-27.79,4.35-12.17-.61-21.08,5.79-29.78,12.82-2.58,2.07-4.28,4.9-1.36,8.06,6.72,7.29,13.22,15.35,22.87,18.44,19.54,6.27,39.77,7.39,60,4.53,8.43-1.19,9-1.44,8.91,7.44-.19,22.88-1.94,45.75-.06,68.63,1.27,15.36-1.16,30.84,1.56,46.13a51,51,0,0,1,0,18c-3.66,20.07-2.1,39.88,2,59.8,1.51,7.41,2.12,16.28-4.17,22.32-3.77,3.62-5.26,7-5.08,12.24a52,52,0,0,1-.63,11.15c-2.39,13,4.22,20.67,16.59,19.25,1.57-.18,3.15-.38,4.73-.59V449c5.9,3.37,11.81,4.95,17.77,7.95,2.69,1.36,6,1.9,8.91,3.17,6.37,2.78,12.79,1.64,19.23,1.73,2.79,0,4.19-1.82,5-4.41,2.14-7-.72-12.68-8.08-15.08-14.73-4.79-25-13.08-25.64-30.06-.21-6,.94-12.7-4.78-17.47-.77-.64-.5-2.75-.4-4.16.81-11.78,1.72-23.56,2.56-35.34.64-8.89.43-17.92,2-26.65,3.92-22.27,9-44.34,12.8-66.64,1.73-10.23,2.71-20.53,6.53-30.27,2.47-6.29,4.54-12.93,12.51-14.43,10.09-1.9,20.71-4.1,28.44,4.75,6.39,7.32,14.78,11.76,21.94,17.9,3.83,3.28,8.92,4.76,14.09,5.13,3.92.28,7.93.35,10.46-3.39,2.67-3.95,1.35-7.65-.87-11.46-3.35-5.74-1-10.55,5.58-11.8,7.41-1.4,14.63-3.09,20.66-8.05C381.58,208.44,383.34,206.44,382.15,203.06ZM332.5,220c-3-1-5.72-4.56-8.21-6.7,2-1,3.95.34,4.57.35.3,0,2.32.35,2.62.36h0a3.78,3.78,0,0,1,3,1C335.5,217,333.5,218,332.5,220Z"/><path d="M270.53,455.59a2.06,2.06,0,0,0-.67,2.53c1.05,2.32,2.81,6.7-.69,7.32-5.61,1-27.26,1.44-29.05,1.35-1.41-.07-11.77.55-16.26-1.54-4-1.84-1.37-5.63-3-7.21-.39-.37-2-.29-2.5-.3l-2.76-.29a37,37,0,0,0-1.34,5.84c-.06,1.93-3.75,2.85-5.68,2.67,0,0-6.55-.86-7-.26-.65.85,1.58,2.24,2.31,2.82a2.61,2.61,0,0,0,1,.57c5.75,1.3,52.16,7.68,70.41,2.49,16.57-4.72,3.47-14-.83-17.08a2.09,2.09,0,0,0-2.43,0Z"/></svg>