<svg id="Layer_2" data-name="Layer 2" xmlns="http://www.w3.org/2000/svg" viewBox="0 0 500 500"><title>Layback spinixd_display</title><path d="M377.72,294.34c-6.13-8.1-14.63-13.54-22.45-19.72-1.61-1.27-3.67-1.82-5.61-.5-8.92,6.1-18.27,4.89-27.66,1.56-6-2.12-11.75-4.72-17.68-6.91-11.62-4.28-23.53-6.28-35.78-3.33-6.15,1.48-9.47-1.7-11.86-7.72A97.58,97.58,0,0,0,246,238c-2.29-3.29-3.43-6.81-2.69-10.52a46.74,46.74,0,0,0-5.85-34.14c-1.8-3-1.34-5.22,1.61-7.16,5.89-3.86,12-7.43,18.85-9,8.64-2,17.21-3.94,24.49-9.42,2.27-1.71,3.72-.81,4.11,1.91.55,3.85-.15,7-4.47,8.32a20.49,20.49,0,0,0-4.25,1.76c-5.45,3.1-8,7.88-7.19,14,.68,5.18,2.56,9.12,8.81,10.43,6.53,1.36,6.5,2,5.23-4.9a4.79,4.79,0,0,1,2-5.17c1.28-1,2.84-2.08,3.51-3.49,1.93-4,4.25-3.66,7.94-2.09,12,5.1,27.19.72,34.06-9.27,2.75-4,3.65-8,1.18-12.6a62.47,62.47,0,0,1-5.64-14.93c-1.05-4.41-1.45-9.08-7.64-9.21-.64,0-1.3-1-1.87-1.56-5.24-5.49-10.47-9.87-18.32-3.71-2.48,1.94-5.41,1.48-5.73-3-1.13-16-4.93-31.6-8.34-47.11-3.86-17.62-17.21-30-29.48-42.47-4-4.06-9.2-4.26-14.43-3.81-9.64.83-17.55,6.16-25.59,10.71-5.8,3.28-5.59,7.31-.68,11.93a18.35,18.35,0,0,1,4.12,6.19c3,6.85,4.63,14,3.69,21.42a56.3,56.3,0,0,0,9,38.55c2.17,3.37,1.56,6.22-1.41,8.82a87.76,87.76,0,0,1-12.74,9.62c-10.16,6-21,12.65-24.78,24.08s-7.17,21.15-7.21,35.44c0,8.42,2,17,2.07,20.23a27.64,27.64,0,0,0,.16,2.88c1.93,15.87,4.19,31.9,13,45.55,8.94,13.91,14.27,30.17,26.83,41.75a15.12,15.12,0,0,1,2.46,3.75c8.93,15.75,19.6,30.54,25.65,47.87,1.65,4.74,1.62,8.68-1.35,12.65A28.41,28.41,0,0,1,239.21,393c-8.14,2.18-8.45,2.92-9.74,11-.95,6,9.59,5.76,14.86,5,3.34-.51,19.56-6.16,23.35-7.59a7.18,7.18,0,0,1,8.09,2.34c.8,1,12,.62,12.91-2.65a15.74,15.74,0,0,0,.53-4.18c.62-8.73-2.8-16.31-6.87-23.65-6.08-11-11.19-22.25-13.91-34.62a88,88,0,0,0-18.12-37.44c-3.73-4.55-5.89-9.88-7.71-16.82,8.79,7.21,18.16,6.59,27.5,6.4,10.48-.21,20.95.3,31.43.8,19.9.93,37.22,9.52,55,17.05a12,12,0,0,1,3.24,2.32c4.93,4.57,10.71,4.45,16.67,3.14a7.35,7.35,0,0,0,5.8-7A20.17,20.17,0,0,0,377.72,294.34ZM231.93,59.17c-.81-.86-2.73-1.39-1.55-3.11a4.53,4.53,0,0,1,4.28-2.12c2.21.25,1.06,2,1.17,3.15.4,4.1,2.45,5,6.06,2.77,7-4.37,8.11-4,11.36,3.47,2.14,4.88,4.23,9.81,6.79,14.47,5.6,10.19,8.8,20.85,7.53,32.58,0,2.83,0,5.67,0,8.5,0,3.12.54,6.41-3.93,7.43s-8,1.54-10.67-3.33c-3.49-6.5-6.85-12.9-7.11-20.54A43,43,0,0,0,243,89.3c-1-2.67-2-5.37-1.82-8.24C241.66,72.23,237.74,65.32,231.93,59.17Z"/><path d="M379.67,303.15a1.15,1.15,0,0,1,.73-1.25c1.32-.49,3.58-1.62,3.05-3.5-.69-2.49-7.57-9.46-8.24-10.14a.58.58,0,0,0-.12-.1,31.18,31.18,0,0,0-6.34-3.74,25.9,25.9,0,0,0-7.13-1,1.14,1.14,0,0,1-.77-.34l-1.49-1.49h3.33a1.15,1.15,0,0,0,.74-2s-7.46-5.88-7.4-6.29c.08-.59,1.49-.26,2-.2a1.44,1.44,0,0,1,.61.18c2.74,1.74,24.72,15.86,29.77,25,4.58,8.3-4.75,7.33-7.64,6.85a1.15,1.15,0,0,1-.94-1Z"/><path d="M240,403.57a1.75,1.75,0,0,1,.73,2.11c-.75,2-2,5.85,1,6.16,4.82.5,23.22-.47,24.73-.66,1.2-.15,10-.27,13.7-2.32,3.24-1.81.81-4.86,2.11-6.31.3-.34,1.64-.37,2.1-.4l2.32-.43a32.42,32.42,0,0,1,1.5,4.87c.17,1.64,3.36,2.19,5,1.92,0,0,5.51-1.14,5.94-.66.6.68-1.21,2-1.79,2.54a2.13,2.13,0,0,1-.82.54c-4.8,1.47-43.77,9.77-59.58,6.5-14.35-3-3.81-11.63-.35-14.54a1.74,1.74,0,0,1,2-.14Z"/></svg>