<svg id="Layer_2" data-name="Layer 2" xmlns="http://www.w3.org/2000/svg" viewBox="0 0 500 500"><title>Artboard 4 copy 3ixd_display</title><path d="M316.49,249c-12.35,2.16-24.47.11-36.77-1.44-14.72-1.86-18.18-10.27-18.59-25-.21-7.4.68-14.94.86-22.43.25-10.38,1.24-20.77,5.58-30.25,3.33-7.3,4.25-14.67,3.92-22.44-.17-4-2-10-2-13.22,0-12,1-20.19,1-32a5.1,5.1,0,0,0-.2-1.28,8.26,8.26,0,0,1-.19-2.86c.25-2.62.29-5.26.66-7.86,2.4-17.07,2.48-34.27,3-51.45.21-7-4.37-10.67-9.58-13.53-3.66-2-7.72-1.18-8.69,3.38-2.32,10.93-9.39,19.14-15.09,28.15C234,66.87,227.54,77,226.7,89.41c-.19,2.8-.06,8.25-.16,11.34-.43,13.27-1.93,22.23-2.86,34.59a65.24,65.24,0,0,1-1.7,7,123.34,123.34,0,0,1-11.09,28.78c-3.06,5.52-9,7.7-4.43,18.59,2.77,6.57,3.68,13.63,4.59,20.68,1.5,11.62,6.47,22.54,6.71,34.47.1,5.19-1.22,7.57-6.77,8.37-11.7,1.67-23.51.38-35.21,1.2l-5.46,7.43c0,.2.08.42.11.63.19,1.47.88,3.42,2.21,3.29,9.46-.93,15.35,7.74,24.1,8.7,3,.33,5.55.22,8-1.6,1.69-1.24,3.88-2.13,5.39-.06,1.34,1.85,3.07,4,1.26,6.62-1.49,2.17-2.77,4.48-4.33,6.6a143.72,143.72,0,0,0-23.76,52.16c-.33,1.37-.6,2.77-.82,4.17-1.55,9.8,1.35,16.74,10.7,21.94,15.72,8.74,30.81,18.65,46,28.37,3.56,2.28,8.35,4.11,6.45,10.7-.79,2.72,3.27,5.2,5.72,7.24,7.91,6.53,8.25,8,3.73,17.25a9.85,9.85,0,0,0-1.36,4.6c.84,11.66-5.2,20.52-11.78,29.08-2.91,3.79-4.9,7.5-5.27,11.72.73,1.61,1.68,2.75,2.63,2.75a48.22,48.22,0,0,0,28.87-6.67,117.33,117.33,0,0,0,12.17-15.7,66.66,66.66,0,0,1,4.36-12.44c-.91-9.28-1.95-12.09-.4-22.19,9.2,4.6,14.84-10.09,12.11-14.12a10.45,10.45,0,0,0-4.37-3.14c-11.94-4.18-16.06-13.55-17.26-25.07a13.5,13.5,0,0,0-1.63-4.56,40.18,40.18,0,0,1-4.08-23.62c2-16.83,3.34-33.82,8.8-50.06,1.73-5.18,3.81-10.25,3.51-15.9-.15-2.84,1-4.09,4.13-3,3.83,1.34,10.51,2.65,11.52,1.67,4.69-4.55,11.15-3.59,16.41-7,8.64-5.55,8.63-12.62,8.83-20.55C322.37,250,320.55,248.24,316.49,249ZM231,356a73,73,0,0,0-10.34-6.43c-2.9-1.52-3.42-3.62-1.7-6.5a71.81,71.81,0,0,1,7.65-10.31,4.91,4.91,0,0,1,8.51,2.1c1.22,5.4,2.44,10.74,3.67,16.19A4.9,4.9,0,0,1,231,356ZM260.1,66a219.15,219.15,0,0,1-5.18,22.92c-.74,2.72-3.09,4.48-5.81,3.61a3.76,3.76,0,0,1-2.24-5.48c4-7,4.81-14.92,7-22.44l3.22-1.86,1.05.25A2.67,2.67,0,0,1,260.1,66Z"/><path d="M263.67,101.51c1.53,1.23,3.17,1.65,5.11.21a13.26,13.26,0,0,1,2.65-1.6,8.16,8.16,0,0,1,9.49,1.58c2.36,2.24,3.66,4.62,2,8.24-1.7,3.78-1.35,4-4.37.85a3,3,0,0,0-3.33-.9,7.25,7.25,0,0,1-3,.49c-2.75-.51-3.4.8-4,3.23a17.4,17.4,0,0,1-3.59,7.12C261.36,114.73,260.18,107.57,263.67,101.51Z"/><path d="M268.69,444.4a1.63,1.63,0,0,1,1.94.58c1.05,1.57,3.14,4.41,5.07,2.46,3.09-3.11,12.81-16.5,13.54-17.66.57-.91,5.48-7.16,6.08-10.79.52-3.21-3.08-3.09-3.4-4.75-.07-.39.67-1.34.9-1.68l1-1.85a29.18,29.18,0,0,1,4.39,1.48c1.29.73,3.49-1.22,4.22-2.5,0,0,2.29-4.45,2.88-4.5.84-.07.77,1.88.83,2.57a1.74,1.74,0,0,1-.07.85c-1.65,4.13-17.71,35.73-29.05,45.1-10.29,8.51-10.61-3.36-10.76-7.29a1.56,1.56,0,0,1,1.06-1.51Z"/><path d="M248.73,475.34a1.11,1.11,0,0,1,1,1.06c.07,1.43.32,4.07,2.15,3.42,2.94-1.05,13.42-6.77,14.26-7.31.66-.42,5.77-3,7.4-5.22,1.44-2-1.34-4-.95-5.23.1-.29,1.56-1,1.82-1.12l.7-.4a32.71,32.71,0,0,1,2.54,3.15c.51.93,2.51.37,3.39-.25,0,0,2.93-2.22,3.29-2.05.53.24-.19,1.54-.4,2a1.49,1.49,0,0,1-.34.55c-2.43,2.22-23.07,18.1-33.11,20.55-9.11,2.22-5.15-5.93-3.86-8.64a1.13,1.13,0,0,1,1.16-.66Z"/></svg>