<svg id="Layer_2" data-name="Layer 2" xmlns="http://www.w3.org/2000/svg" viewBox="0 0 500 500"><title>Artboard 4 copyixd_display</title><path d="M312,403.4l1-.12a11.07,11.07,0,0,1-1.21-.28Z"/><path d="M447.51,247.38c-3.68-4.58-6.75-10-6.78-15.82,0-5.95-3.37-11.22-6.88-12.48-7.46-2.69-9.78-8.21-12.37-14.24-1.58-3.68-3.31-7.2-8-7.77-5.6-.68-9-4.43-12.25-8.59-5.14-6.62-9.77-14.12-16.78-18.55-27.41-17.32-52.11-33.53-81.75-46.46-7.09-3.09-13.73-7.26-22.2-6.43-5.93.59-7-1.55-5.74-7.92a2.74,2.74,0,0,0,0-1.21c-2.51-8.48,1.59-15,6.16-21.46,4.7-6.65.48-19.18-7.58-20.21-7.51-.95-13.83-2.81-18.9-8.53-.88-1-2.5-1.39-3.84-1.93C235.45,49.6,215.73,54.36,205,67.05c-2.3,2.71-6.16,11.59-7.26,15.94-2.52,9.92,3.84,19.55.73,29.44a2,2,0,0,0,.55,1.7c6.21,4.66,6.93,12.44,10.57,18.56,5,8.44,7.86,9.23,16.07,3.48,6.55-4.59,8.93-4.43,15.05.7,2.55,2.14,3.12,4-.5,5.32-10.55,3.86-17,11.95-22.31,21.28-1.75,3.1-3.62,6.12-6.74,7.91-12.54,7.22-25.48,13.58-39.66,17a64.67,64.67,0,0,0-11.73,3.85c-18.29,8.3-35.43,18.79-55.62,23.31-14.62,3.27-29,7.45-44,8.87-2,.19-5.46.27-5.6,1.72-.41,4.28-3.46,4.12-6.15,5.06a4.09,4.09,0,0,0-3,3.63c0,2,1.79,2.57,3.36,3.12a20.34,20.34,0,0,0,3.56,1c6.23,1,13.26-.36,17.41,6.41.42.68,1.85.84,2.85,1,8.48,1.54,16.89,3.67,25.66,2.86,2.1-.2,4.54-.74,6.45,1.3-1.45,2.63-4.54,2.73-6.51,4.45-1.68,1.47-4.3,2.78-3.22,5.36,1.27,3,4.2,2.08,6.48,1.22,5.19-1.95,10.3-4.22,15.25-6.59,18.6-8.91,37.8-16.24,56.82-24.11,16.88-7,36.39-10.88,47.09-28.55A5.33,5.33,0,0,1,222,201.1c8.28-6.45,16.51-13,24.9-19.29,1.78-1.34,3.17-4.46,6.2-2.79s3.57,4.7,2.88,7.58c-1.43,6,1.77,8.86,6.44,11,3.36,1.54,6.64,3.08,10.44,3.61a151.09,151.09,0,0,1,18,3.52c10.91,2.89,19.5,10,29.94,16.95-5.62-.51-9.7-.85-13.77-1.25-13.16-1.28-26.24,1.06-39.47.42-14.39-.7-24.39,10.9-23.79,25.28a7.1,7.1,0,0,1-3.13,6.77,43.14,43.14,0,0,1-10.87,5.81c-17.38,6.48-34.72,13.11-52.21,19.26-8.51,3-17.19,6.85-26.41,5.28a75.79,75.79,0,0,0-25.23-.17c-1.8.29-4,.82-5.45.12-10.39-4.87-21.1-3.64-26.09-13.67-7.33-14.73-18.31-10.56-22-9.89-2.73.5-3,3.2-2.44,5.57,1.17,5,2.66,9.95,3.74,15,1.45,6.73,3.56,12.8,9.1,17.66C87,301.63,91.13,305.8,93.92,311c1.64,3,1.5,5.09-2.21,5.9-5.25,1.15-5.91,4.23-3.94,8.69C88.68,327.66,89,330,90,332c1.36,2.79,4.09,8.46,7.08,7.65,12.27-3.34,25.11-5.51,34.28-15.69A34.21,34.21,0,0,1,143,316c9.5-4.3,19.78-5.6,29.87-7.31,14.82-2.5,29.83-3.9,44.65-6.42,13.64-2.31,25.21-10.06,37.37-16.06,5.18-2.56,7.9-1.79,11.1,2.92,12.14,17.87,27.42,33.43,38.51,52.12,3.65,6.15,2.19,13.67,6.25,19.54.21.3-.17,1.25-.54,1.68-6.26,7.5-17.82,17.69-22.75,20.44-5.21,2.9-10.76,4.65-15.24,6.87-5.49,2.72-9.87,7.86-9.36,13.89.12,1.43.45,1.65,1.79,2.61.74.53,3.91.67,4.62.7,8.63.33,15.67.62,24.58-.95,6.07-1.07,12.13-1.9,18.18-2.6l-.18-.4a11.07,11.07,0,0,0,1.21.28c1.85-.21,3.7-.4,5.55-.59,6.37-2.49,11.45-10.43,18.24-12.69v11.07c6.94-.57,13.89-1.14,20.85-1.85,4.42-6.69,3.76-14.2,1.17-20.53a356.13,356.13,0,0,1-12.19-35c-.64-2.19-1.59-4.09-3.95-4.12-5.57-.08-7.65-4.15-9.91-8.11s-4.44-7.82-7-11.59c-6.37-9.34-12.76-18.79-16.23-29.74-2.41-7.62-2-7.37,5.82-7.34,17.86.06,34.91,5.59,52.57,6.89,15.92,1.17,31.38,1,44.9-9.21,1.15-.87,2.16-2.2,4.27-.75,7.16,4.88,14.26,1.82,16.34-6.53,1-3.83,2-8.45,7.62-4.09,1.55,1.21,2.69,0,3.89-.7C453.43,263.48,454.22,255.73,447.51,247.38Zm-347-10.32c3.16-5.92,37.17-18.73,52.3-17.44C139.91,229,115,237.89,100.51,237.06Z"/><path d="M75.24,276.54A2.13,2.13,0,0,1,73,278c-2.63-.27-7.52-.56-7,3.09.86,5.85,7.55,27.32,8.22,29.06.54,1.37,3.34,11.77,6.87,15.5,3.12,3.29,6-.5,8.1.6.49.25.93,1.83,1.11,2.36l1.2,2.62a38.75,38.75,0,0,1-5.32,3.24c-1.88.69-1.57,4.63-.76,6.47,0,0,3,6.17,2.57,6.82-.63.92-2.73-.82-3.55-1.34a2.77,2.77,0,0,1-.88-.82c-3.18-5.23-24.73-48.84-25.62-68.52-.8-17.87,12.61-8,17.09-4.79a2.14,2.14,0,0,1,.8,2.38Z"/><path d="M277.91,403a2.72,2.72,0,0,1,1.33,3.18c-.95,3.19-2.44,9.2,2.22,9.38,7.47.28,35.69-3.06,38-3.5,1.83-.35,15.4-1.42,20.86-4.94,4.81-3.11.75-7.57,2.61-9.93.43-.55,2.49-.73,3.19-.83l3.54-.88s2.43,5.26,2.79,7.34c.42,2.51,5.39,3,7.86,2.45,0,0,8.37-2.3,9.07-1.61,1,1-1.65,3.2-2.49,4.09a3.26,3.26,0,0,1-1.21.91c-7.24,2.74-66.41,19.44-91.06,16-22.39-3.13-7-17.52-2-22.34a2.73,2.73,0,0,1,3.15-.44Z"/></svg>