<svg xmlns="http://www.w3.org/2000/svg" viewBox="0 0 200 250"><title>Artboard 63</title><g id="Layer_4" data-name="Layer 4"><path d="M32.49,117.67c4.78-.21,8.95-.34,13.12-.6,5.36-.33,10.74-.53,16-1.24a135.05,135.05,0,0,0,14.74-3,109.57,109.57,0,0,0,14.4-4.33c4.75-1.91,9.2-4.57,13.93-7-2.13-2.59-4.14-5-6.12-7.46-.16-.19-.37-.52-.3-.68,2.07-5.24-2.25-11,1.45-16.18,2.93-4.11,6.35-6.68,11.69-5.94a3.67,3.67,0,0,0,2.89-.81c2.12-2.71,4.57-2.13,6.9-.79a5.71,5.71,0,0,1,2.88,6.59c-.6,3.08-.57,6.29-1.34,9.31-.62,2.44-2.28,4.61-3,7a7.69,7.69,0,0,0,.06,5.15c.61,1.2,2.61,1.78,4.09,2.41,2.64,1.15,5.45,2,8,3.24,2.95,1.48,5.67,3.41,8.58,5,2.38,1.28,4.9,2.29,7.35,3.46,4.07,1.93,7.89,3.17,12.48.53,1.87-1.07,5.14.31,7.71,1.07-14.38,8.44-14.38,8.44-35.65,1.63-1.91,10.45-2.55,20.78,1.33,31,1.66,4.34,3.08,8.77,4.66,13.15,2.37,6.55.37,11.25-5.92,14.31-9.56,4.64-19,9.45-28.61,14.09-3.2,1.55-3.49,4.32-2.5,6.9,2.61,6.76,2.09,13.25.21,20.12-.88,3.21.34,7,.59,10.52.37,5.27.86,10.54,1,15.81,0,1.14-1.24,2.31-2,3.69l1.84,2c-.31.24-.5.51-.7.52-7.34.43-14.68,1-22,1.18-2.26.06-5.13-.36-2.5-3.87.08-.11.22-.28.19-.33-4-6.32,2.36-6.17,5.14-7.91,6.41-4,9-10.16,8.78-17.13-.31-9.68-1.75-19.31-2.35-29-.17-2.74.89-5.56,1.35-8.15a10.9,10.9,0,0,0-10,9.11c-1.16,6.32-5.17,10.94-9.15,15.52-3.43,3.95-6.42,7.8-6.83,13.46-.25,3.49-1.92,7-3.4,10.24s-2.37,7.47-8.12,6.83l2.72,4.65c-8.23-3.85-16.31-6.19-22.87-11.62-1.56-1.3-2-2.74.55-3.56.36-.11,1-.27,1-.39-.18-5.95,4.25-3.42,7.13-4.1,3.16-.75,6.78-1.48,9.1-3.49,6.64-5.77,10.9-13.33,13.91-21.59,1.86-5.11,3.33-10.41,5.73-15.25a32.28,32.28,0,0,1,7.25-9.42c5.38-4.8,11.27-9,16.91-13.44a45.17,45.17,0,0,1-3.8-4.7c-1-1.67-.49-3,1.67-3.26l18.69-2.22c.7-1.07,1-1.33,1-1.47-2.5-7-3-14.6-7.26-21-1.19-1.77-1.37-4.28-1.73-6.5a37.94,37.94,0,0,1-.05-5.53c-2.9,1-5.39,1.64-7.68,2.69-14.73,6.76-30.06,8.07-45.93,5.64-3.09-.47-6.39,0-9.54.49C35.53,123.68,34.32,123.14,32.49,117.67ZM51.85,231.44H41.53c2,3.9,7.77,6.65,11.66,5.51a8.79,8.79,0,0,1-1.28-2.23A15.75,15.75,0,0,1,51.85,231.44Zm35.46,12.84a10.08,10.08,0,0,0,11.83.48C94.41,240.92,94.41,240.92,87.31,244.28Z"/></g></svg>