<svg xmlns="http://www.w3.org/2000/svg" viewBox="0 0 200 250"><title>Artboard 64</title><g id="Layer_4" data-name="Layer 4"><path d="M124.5,196.41l3.86,1.83c-1.9,1.19-3.25,2.76-4.58,2.75-8.66-.12-17.31-.56-26-1-.77,0-1.51-.62-3.32-1.41L100,196.5c-3.66-4.25-.93-8,.8-11.87,2.94-6.57,5.78-13.19,8.79-19.73a114.52,114.52,0,0,1,6.52-13.07c2.73-4.37,2.58-5.07-2.63-6.05-4.68-.87-9.3-2.06-13.9-3.1-.23.26-.57.46-.55.62,1.55,11.35-1.94,22.08-4.27,32.9-1.86,8.64-4.66,17.08-6.65,25.69s-2.27,17.41,2.36,25.59c2.71,4.8,3.8,9.77,1.22,15.75-1.84-1-4-1.65-5.39-3-3.91-4-7.57-8.16-11.13-12.43-.5-.6.06-2.15.29-3.23.11-.52.86-1,.89-1.44.53-9.37,4-18.29,3.31-28-.49-6.42,1.32-13,2.06-19.52a49.3,49.3,0,0,0,.68-8.45,263,263,0,0,0-3-26.95c-1.36-2-2.64-4.1-4.15-6a3.17,3.17,0,0,0-2.38-1.09,9.5,9.5,0,0,0-2.8,1.19c-3.6-3.78-1.23-7.71-1-12,2.66-.29,5.55-.6,8.44-1,2.54-.31,3.64-1.7,4.73-4.2,4-9.21,1.32-18.32.61-27.53-3.74.93-7.29,2-10.91,2.65-2.65.44-5.75.67-7.2-2.35-1.55-3.22.74-5.4,2.87-7.34a101.14,101.14,0,0,1,9.44-8c1.29-.91,9.31-2.63,10.58-3.09s3.37-1.32,3.55-2.28a10.89,10.89,0,0,0-.75-6C88.85,59.65,86.82,56.3,85,52.85c-.39-.74-.6-1.83-1.22-2.17-2.64-1.42-2.72-3.89-1.32-5.55s3.74-2.39,5.83-2.84,4.52.17,6.73-.11c5.84-.77,11.52,2.2,12.38,8,.75,5.1.1,10.5-.59,15.68-.28,2-2.39,3.78-3.59,5.56l24.08,10c.7-5.18,1.5-10.13,2-15.11.12-1.38-.66-2.9-1.19-4.29-1-2.71-2.18-5.36-3.29-8l.87-.55L128.21,55l-.88-6.34.89-.24L130,53v-4l.62-.15c.44,1.46.87,2.91,1.34,4.48l.37-2.93,1.19-.21A60.58,60.58,0,0,1,135.14,58c.4,5.5.53,11,.6,16.52,0,4,.28,8-.4,11.94-.79,4.52-2.52,5.34-6.9,4.12C122.26,88.86,116.13,87,109.67,85c.4.94.79,1.92,1.22,2.88a9.45,9.45,0,0,1-.15,8.87,35.27,35.27,0,0,0-3.31,21.51,4.44,4.44,0,0,0,2.84,2.81c6,1.39,6.6,2.28,4.69,7,5.08,4.48,10,8.74,14.81,13.13,3.07,2.8,3.13,5,1,8.57-4.65,7.76-9.53,15.4-13.63,23.44-1.61,3.15-1.56,7.21-1.88,10.89-.07.83,1.32,2,2.31,2.64,1.53.93,3.38,1.33,4.93,2.24C125.28,190.65,127.37,192.71,124.5,196.41Zm-11.1,2.42.07-1.6c-3.33-.86-6.43-4.75-11,.46Z"/></g></svg>