<svg xmlns="http://www.w3.org/2000/svg" viewBox="0 0 200 250"><title>Artboard 65</title><g id="Layer_4" data-name="Layer 4"><path d="M111.2,196.15a36.24,36.24,0,0,1-18.38,6.54c1.12-1.81,1.76-2.85,2.51-4.05-4.6-2.72-4.42-7.09-3.45-11.13,2-8.34,4-16.64,3.17-25.27-.34-3.43-1.82-6.79-1.87-10.19C93,139,89.26,127,83.8,115.16A23.85,23.85,0,0,1,84,94.42c1.28-2.69.35-4.29-2.2-5-3.21-1-6.51-1.59-9.74-2.49-1.7-.47-3.33-1.21-5.6-2,1.19-.83,1.54-1.27,1.78-1.21,4.71,1,9.5,1.87,14.07,3.36,4.08,1.33,5.46.91,6.1-3.4a23.52,23.52,0,0,0-2.73-15.75c-.29,2.25-.37,3.54-.64,4.77-.68,3.07-3.07,3.81-5.46,1.73-6.43-5.58-7.42-17.49-2.78-24.41,2.91-4.35,5.83-6.67,11.11-4.8,1,.35,2.27-.06,4.08-.15-.76-2.12-1.53-3.8-2-5.57-1.35-5.56-3.34-11.15,0-16.73,3.73-6.3,12.38-6.8,16-.74a8.09,8.09,0,0,1,.68,5.47c-.79,3.47-2.53,6.73-3.23,10.2-.4,2-.27,5.06.94,6.09,1.62,1.37,4.59,1.88,6.85,1.62,7.68-.86,10.24.34,12.3,7.67,2.17,7.75.36,15.44-1.38,23-.62,2.71-3.2,3-5,.74a37.05,37.05,0,0,1-2.4-3.87,36.81,36.81,0,0,0-2.9,16.3c0,.63,1.2,1.2,1.77,1.85,1.18,1.35,3,2.71-.26,3.87-.51.19-1,1.38-.93,2.07.16,3.22.41,6.44.8,9.64a74.77,74.77,0,0,1-1.89,26.93c-1.18,4.85-1.58,9.88-2.29,14.84-.38,2.69-.32,5.49-1.08,8.07-2.63,9,.26,16.75,5,24.17q2.42,3.75,4.69,7.59a9.14,9.14,0,0,1,1.55,3.53,73.86,73.86,0,0,1,0,7.44c-2.34-.76-4.69-1.5-7-2.3A4,4,0,0,1,111.2,196.15Zm-13.76,4.11c3.54-1.71,7.27-1.69,8.93-5.43C101,192.12,99.17,193.14,97.44,200.26ZM106,186.09l-2.22-10.8C101.8,179.56,101.87,183.38,106,186.09Z"/></g></svg>