<svg xmlns="http://www.w3.org/2000/svg" viewBox="0 0 200 250"><title>Artboard 66</title><g id="Layer_4" data-name="Layer 4"><path d="M117.73,65.6c.24,3.5,1,5,4.6,3.16,2.34-1.19,5.2-1.42,7.87-1.86.75-.12,2.15.35,2.32.86a3.07,3.07,0,0,1-.55,2.7c-2.79,2.42-5.77,4.63-9,7.14a61.82,61.82,0,0,1,1.86,34c-1.29,6-3.68,11.83-5.51,17.75a12.63,12.63,0,0,0-.8,4.07,33.37,33.37,0,0,1-5.45,19.91,7.69,7.69,0,0,0,.69,10,12.42,12.42,0,0,1,3.06,11.48,4,4,0,0,0-.13,1.92c1.86,5.48.15,10.55-1.59,15.2-9.36-3.76-5.24-13.09-8-21-1.86,2.78-3.59,4.59-4.4,6.74-2.47,6.57-3.93,9.28-9,14.46a25.31,25.31,0,0,1-1.35-3.94c-.43-2.68-.31-5.49-1-8.08-2.23-8.11,2.8-12.27,8.47-16,4.34-2.89,5.5-4.94,3.69-9.94a73.79,73.79,0,0,1-4.53-27c.07-3.59-1.72-7.23-2.68-10.83-2-7.5-4.11-15-5.95-22.5-.54-2.22-1-4.81-.34-6.9,1.26-4.17-1-6.15-3.76-8.25a83.42,83.42,0,0,1-7.42-6.25c-2.75-2.62-2-5.85,1.55-7.35A36.92,36.92,0,0,0,86,62.55c4-2.54,4-3.55.37-7.87a53,53,0,0,1-5.19,3.65,96.57,96.57,0,0,1-10,4.89c-2.3.93-3.9-.3-3.81-2.81s0-5.09,1-7.17C71.52,46.85,75,40.61,78.56,34.48c3.28-5.57,4.89-6,11.19-4.72a12.34,12.34,0,0,0,4.61.12,3.54,3.54,0,0,0,2-6c-1.45-1.7-3.24-3.2-4.29-5.11a8.29,8.29,0,0,1-1.06-5.36c.54-2.34,2-4.47,3.21-6.64,2.77-5.14,11.42-5.06,15.18.33a11,11,0,0,1,2,6.1c-.12,4.31-1,8.59-1.47,12.89-.11,1,0,2.62.65,3.05a4.64,4.64,0,0,0,3.52.4c4.77-1.43,8.28.09,9,5.1.89,6.11.86,12.35,1.2,18.53.11,2.06,0,4.14.21,6.17C125.28,65,123.59,66.63,117.73,65.6ZM84.81,42.47C82,46.24,79.12,50,76.17,54,87.5,50.83,87.7,49.44,84.81,42.47Zm24.5,56.07h-.76v22.54h.76Z"/></g></svg>