<svg xmlns="http://www.w3.org/2000/svg" viewBox="0 0 200 250"><title>Artboard 67</title><g id="Layer_4" data-name="Layer 4"><path d="M83.2,98.6c-6-.87-11.72-2.07-17.45-2.39-3.64-.19-4.78-1.74-5-4.88-.49-6,1.26-11.17,5.21-16.2,2.07,3.58,5,3,8.31,2.46,3-.45,6.19.15,9.24.65,4.43.74,5.28.52,5-4s-1.66-9.33-2.33-14A158.28,158.28,0,0,1,84.25,43c-.12-4,3.66-5.24,9.67-3.79-.66-1.42-1.06-3.06-2-4.22-2.39-2.86-2.35-10.43.33-14.33,2.36-3.44,6.06-4.67,9.84-2.7a9.5,9.5,0,0,1,4,4.35,23.61,23.61,0,0,1,2,8.46c0,1.64-1.7,3.31-2.63,5l-1-.12a31.3,31.3,0,0,1,1.82,4.82c.31,1.48.06,3.08-.26,5.77,2.63.27,5.35,1.07,7.89.69,5.49-.84,9.22.33,10.74,5.63,1.86,6.46,7,10.23,10.69,15.12,2.24,2.94,4.49,5.67,4,9.69-.46,3.59-2.08,4.52-4.8,2.09-3-2.64-5.39-5.89-8-8.9a9.57,9.57,0,0,0-3.27-2.83c.11,1.12.22,2.24.41,4.29l-7.32-3.19c-.71,6.3-1.45,12.26-2,18.24-.08.87.78,1.81,1.17,2.74s1.15,2,1,2.86c-1.49,11.41-3.4,22.78-4.56,34.23-.5,4.86.36,9.89.84,14.82.4,4,1.6,7.88,1.64,11.82a17.23,17.23,0,0,0,4,10.9c3.73,4.87,6.46,10.44,11.25,14.63,1.55,1.35,1.46,4.58,2.12,6.94l-.9,1.25c-3.38-1-7.37-1.25-10-3.25a27.86,27.86,0,0,1-11.26-18.36c-.32-2.12-.83-4.22-1.35-6.87-2.29,6-4.34,11.35-6.33,16.71a7,7,0,0,0-.47,2.64c.49,11.92.5,11.92-4.07,23.42-6.14-9.85-6.28-12.94-1.81-26.24a26.84,26.84,0,0,0,1.14-7.54q.66-19.56,1-39.12a6.06,6.06,0,0,0-1.42-3.75c-2.55-2.91-5.27-5.7-8.08-8.37C81.69,110.33,81,108.33,83.2,98.6Z"/></g></svg>