<svg xmlns="http://www.w3.org/2000/svg" viewBox="0 0 200 250"><title>Artboard 68</title><g id="Layer_4" data-name="Layer 4"><path d="M90.79,161c-.68.25-1.14.28-1.35.52-5.73,6.74-14,8.28-21.77,11.08-6.23,2.24-12,5.93-17.84,9.07-2.5,1.33-4.87,2.9-8.17,4.89-4.34-3.34-9.58-7.08-14.45-11.25-1.79-1.53-2.68-2.85,1-5.16,4.76-3,8.34-1.27,12.71-.78a41.38,41.38,0,0,0,14.48-.64c5.44-1.38,10.53-4.2,15.73-6.51A35.71,35.71,0,0,0,86,150.19c1.48-2.06,4.17-3.28,6.36-4.8.94-.66,2-1.09,3-1.67,5.55-3.26,11-6.71,16.66-9.75,4.71-2.53,5.38-4.26,1.25-7.57-4.55-3.65-9.47-6.81-15.31-8.46-2-.58-3.77-3.17-5-5.24-1.52-2.6-2.35-5.61-3.58-8.72-7.26,2.6-13.84,5.23-20.6,7.27a48.13,48.13,0,0,1-12.53,2.1c-6.94.16-12.7,2.8-18.23,6.64-1.29.89-3.29.76-5.36,1.18.08-.6.16-1.24.3-2.28l-2.68,1.54,1.27-4.07-1.23-.86c5-1.72,10-3.23,14.84-5.18C57.28,105.46,71,105.14,81.83,97a87,87,0,0,0,6.47-5.92c-7.88-7.19-17.13-10.78-26.58-14.43,3.56-3.54,6.77-3.69,9.93-1.18A15.32,15.32,0,0,0,75,77.24c1.18.52,2.39,1,4.08,1.62.28-2.38.51-4.61.81-6.82,1-7.43,8.53-12.31,15.42-10,3.37,1.12,8.19,8.31,7.64,11.73a4.93,4.93,0,0,1-1.75,2.78,56.26,56.26,0,0,1-5.43,3.37c2.19,2.7,4.1,5.21,6.19,7.57,4.44,5,9,9.92,13.48,14.88,3,3.35,6,6.77,9.1,10.08s6,5.69,11.29,5c2.65-.36,6.09,2.19,8.6,4.16,4.69,3.68,9,7.9,12.8,11.35,0,3.18-.16,6,0,8.85.36,5.18-2.22,7-7.37,5.83-4.25-1-7.66-2.83-9.8-6-8.85,6.28-17.45,11.82-27.2,15.41a51.67,51.67,0,0,0-7.79,3.45c-2.6,1.48-3,3.49-.29,5.46,4.38,3.26,6.66,7.89,8.06,12.94a22.9,22.9,0,0,0,6.46,10.75c4.74,4.6,7.23,10.39,5.21,17.24a17.57,17.57,0,0,1-1.94,3.37l2.82,2.09-.1,1.09c-8.32,0-16.63.18-24.94-.09-2.94-.1-3.16-1.21-1.43-3.65.21-.29.59-.69.52-.93-1.69-5.42,2.59-5.22,5.69-5.95,6.66-1.57,8.56-5.27,5-10.91a156,156,0,0,0-9.62-13.41C96.4,173.13,91.94,168.07,90.79,161Zm27.4,44.56-9.71,4.34c2.42,3,9.15,3,12.57.09Z"/></g></svg>