<svg xmlns="http://www.w3.org/2000/svg" viewBox="0 0 200 250"><title>Artboard 69</title><g id="Layer_4" data-name="Layer 4"><path d="M24.08,117.4v-4.5l9.35-1.66a45.36,45.36,0,0,0,.37-5.57c-.18-5.8,2.57-8.7,9.29-9.52,4.43-.54,7.75,2.26,8.75,7.38.07.37-.1.92.1,1.13,3.44,3.55,2.84,6.37-1.2,9-.43.28,0,2.92.79,3.71a4,4,0,0,0,3.74.62,5.16,5.16,0,0,0,2.1-3.4c.89-4.58,3.21-7,7.91-7.77A47.11,47.11,0,0,1,76,105.78c-2.52,1.85-5.28,3.47-7.49,5.64-1.28,1.27-1.88,3.36-2.47,5.19-1,3.1-1.79,6.27-2.58,9.43-.23.93-.64,2.26-.21,2.83,4.89,6.41,8.61,13.92,17.09,16.83a137.43,137.43,0,0,1,17.13,7.18c2.27,1.14,3.79,3.75,5.68,5.66a9.44,9.44,0,0,0,2.25,1.91c5.58,2.71,11,5.89,16.87,7.79,3.75,1.22,8.12.45,12.2.7,4.6.28,9.27.29,13.75,1.2s8.48,1.64,12.76-1.7c2.19-1.71,6.17-1.13,9.34-1.59l.38,1,1.54-3.25c2,8,4.19,15.88,3.55,24.15-.12,1.57-.76,3.26-3,1.75a2.11,2.11,0,0,0-1.66-.33c-3,1.26-4.53-.5-5.31-2.86-2-5.91-6.31-7.33-12.08-8.44-9.38-1.81-18.58.14-27.81-.37-6.51-.35-13-1.87-19.4-3.19a81,81,0,0,1-11.14-3.34c-6.85-2.49-11.57.79-16.43,5.09S68.56,185,63.3,188.85c-.93.69-2,1.17-3,1.82-6.15,4.05-6.19,5.71-2.29,11.77,2,3.11,2.69,7.06,4,10.63s2.77,7.37,4,11.09c1.74,5.09,3.57,10.16,4.88,15.36.36,1.42-1,3.27-1.73,5.36l2.5,1.61v1.24c-8,.35-16,.82-24,1-1.7,0-3.82-1-1.61-3.45.25-.28-.29-1.17-.11-1.64a30,30,0,0,1,2.12-4.43c.27-.45,1.12-.61,1.74-.78,9.22-2.51,9.68-8.07,5.46-16.89-4-8.27-8.22-16.4-11.88-24.79-.73-1.68.08-4.66,1.19-6.38A118.25,118.25,0,0,1,55.17,176a9.37,9.37,0,0,0,2.1-9.29c-.58-2.3-.36-3.77,1.66-5.31,3.44-2.62,3.28-3.52.21-6.61-2.45-2.46-4.66-5-8.62-5.3-1.29-.1-2.83-2.14-3.53-3.64-2.9-6.19-5.29-12.62-8.35-18.73-1.64-3.27-3.77-6.67-6.58-8.84C30.24,116.86,26.78,117.61,24.08,117.4ZM55.34,245.29c0,.5,0,1,0,1.49l12.18-.86-3.37-4.74Zm116.58-75.51-1.32-.49c-.68,1.21-2.13,2.62-1.89,3.6A64.39,64.39,0,0,0,172,181.3C174.24,177.27,173,173.53,171.92,169.78Z"/></g></svg>