<svg xmlns="http://www.w3.org/2000/svg" viewBox="0 0 200 250"><title>Artboard 31</title><g id="Layer_4" data-name="Layer 4"><g id="Flip"><path d="M18.13,143.8l-5.16-2,2.94-.65-2.57-1.91c6.92-2,8.76-1.41,12.36,3.51,2.86,3.9,12.57,7.27,17.13,5.72A3.55,3.55,0,0,0,44.59,146a99,99,0,0,0,1.23-12.72c0-5.44,1.76-9.3,7.14-11.44,2.1-.84,3.71-2.94,5.78-4.67-1-.89-1.6-1.85-2.24-1.89-4-.25-6.22-2-7.64-6-1.37-3.85-.62-14.08,2.38-17.06s10.42-3.51,14.9-1.11a4.09,4.09,0,0,0,2.27.75c3.35-.57,5.87.18,6.14,4s-2.49,4.72-5.64,4.94A48.83,48.83,0,0,0,67.1,106c-.37,1.61-1.11,4.06-.35,4.81,1.45,1.45,4,3,5.8,2.68,14.42-2.69,28.76-.87,43.14,0,3.82.24,7.69-.34,11.52-.24,2.65.07,5.64.08,6.29,3.75-16.54-1-32,4.81-47.83,6.81-.11,9.59,7.53,20.26,16.09,21.53,7.69,1.15,12.85,4.71,16.23,11.44a3.87,3.87,0,0,0,1.49,1.46c4.31,2.54,8.42,5.68,13,7.35,4.43,1.6,9.39,1.86,14.15,2.36,5.63.58,11.34.51,16.94,1.27,3.29.45,6,.36,8.94-1.48,2.12-1.32,5.07-1.32,7.65-1.9l4.47-1c1.13,7.15,3.29,14.93,1.9,22.83-2.18,0-3.9.38-5.31-.12a5.83,5.83,0,0,1-3.28-2.87c-2.16-5.58-6.15-7.91-12-7.9-7.25,0-14.53-.5-21.77-.19A62.23,62.23,0,0,1,120.66,173c-3.63-1.28-7.46-2-11.12-3.19-4.93-1.64-8.32.59-11.91,3.67-5.27,4.52-11,8.53-16.53,12.72-1.25.94-2.66,1.67-3.95,2.57-3.25,2.27-3.64,5-1.06,8,3,3.4,4,7.29,4.58,11.73.44,3.48,2.14,7,4,10.08a29.22,29.22,0,0,1,4.29,15.91c0,1-1.09,2.05-1.8,3.28.77.67,1.56,1.35,3.25,2.79H65.57c0-2.32-.42-4.06.12-5.43s1.82-3.07,3.13-3.48c9.19-2.88,9.77-7.14,5-16.53-3.7-7.24-7.29-14.56-10.51-22-.68-1.59-.12-4.35.89-5.92a123.27,123.27,0,0,1,9.47-12.74c2.62-3.12,3.77-6.28,2.42-10.22-.74-2.16-.48-3.66,2-4.75,2.84-1.22,3-3.53,1.06-5.91-3.66-4.54-6.83-9.5-13.57-10.3-1.8-.22-3.43-2.72-4.94-4.36a52,52,0,0,1-3.47-4.68l-1.33.09c-.36,2.09-.7,4.18-1.1,6.26-.78,4.05-1.18,8.23-2.51,12.09-1.48,4.31-4.76,5.75-9.29,4.9a21.48,21.48,0,0,1-5.3-1.65c-7.57-3.72-15.08-7.57-22.71-11.42Zm55.26,93.75c4.71,2.86,9.59,2.35,11.74-.37C81.23,231.2,78.11,237.46,73.39,237.55ZM183.33,178.8l1.63-.13c-.44-3.59-.87-7.17-1.44-11.87l-3.82,4.08C181,173.76,182.17,176.28,183.33,178.8Z"/></g></g></svg>