<svg xmlns="http://www.w3.org/2000/svg" viewBox="0 0 200 250"><title>Artboard 32</title><g id="Layer_4" data-name="Layer 4"><g id="Flip"><path d="M89.45,155.75c-3.27-3.32-6.06-6.61-9.31-9.33-3-2.52-6.53-4.44-9.81-6.61-1.94,2.18-3.34,3.8-4.79,5.37C61.08,150,55.61,149.54,50,148c-8-2.19-15.92-4.5-24.09-6.81l3-1.93-6.33-.72,3.5-1.67-2.86-.68c.1-.41.09-.8.24-.88,5.83-3,9-2.16,13.3,1.92a14.76,14.76,0,0,0,7.94,3.39,74.64,74.64,0,0,0,12.86,0c1.13-.06,2.78-.68,3.25-1.55,2.34-4.36,6.12-8.33,3-14.14-1.36-2.49-1.25-5.78-2.64-8.14-1.6-2.58-4.18-5-4.56-7.76a42,42,0,0,1,.5-14c.79-3.85,4.87-5,8.27-4.77a11.48,11.48,0,0,1,7,3.64c1.82,2.08,2.68,5.16,3.43,7.95.26,1-.89,2.51-1.74,3.5a35.16,35.16,0,0,1-4.37,3.56c5.84,3.24,10.72,6.43,16,8.74,6.09,2.66,8.76,7.18,8.48,13.4-.16,3.44,1.48,5,4.11,6.13A29.35,29.35,0,0,0,103.1,139c6.26,1.47,11.34,4.55,15,10a10.48,10.48,0,0,0,3.34,3.22c5.28,3.09,5.87,5.56,2.2,10,2.16,5.47,4.41,10.86,6.41,16.34,1.53,4.19,4.39,6.73,8.34,8.69a48.22,48.22,0,0,1,9.41,6.49c4.24,3.61,8.26,7.17,13.81,9,3.77,1.26,7.07,4.17,10.25,6.75,1.32,1.08,1.76,3.23,2.84,5.34l2.69-.73c0,.31.18.67.06.83-4,5.55-8,11.18-12.25,16.54-.9,1.12-3.27,5-4.59-.15-8.32-1.37-3.83-7-2.83-10.4,2.5-8.57-4.07-11.6-8.63-16a7.35,7.35,0,0,0-2.2-1.33c-15.51-6.57-28-17.1-38.68-29.87a25.08,25.08,0,0,0-2.14-2.11,1.83,1.83,0,0,0-.55-.28c-8.41,4.54-16.73,8.94-25,13.52-4.85,2.7-4.77,4.63-2.14,9.3,2.11,3.73,2.86,8.21,4.36,12.3,1.34,3.66,2.73,7.32,4.36,10.86,2.8,6.11,7.08,11.89,3.34,19.17-.2.39.84,1.43,1.66,2.74-8.92.85-17.47,2.72-26,1.06-.55-6.55,2.82-9.1,8-11.05s6.28-6.64,2.65-13c-4.57-8-8.33-16.16-10.42-25.23-1.24-5.35-1.26-9.85,2.74-13.85,2.12-2.13,4.53-4,6.45-6.29,1.54-1.84,2.46-4.18,3.79-6.2a15.71,15.71,0,0,1,2.89-3.48C84.55,159.24,87,157.57,89.45,155.75Zm75.92,70.08c4.41-1.43,7.72-6,7.64-10l-3.65-.5C168.05,218.77,166.82,222,165.37,225.83ZM87.15,238c-2.92-4.91-2.92-4.91-10.55.86Z"/></g></g></svg>