<svg xmlns="http://www.w3.org/2000/svg" viewBox="0 0 200 250"><title>Artboard 33</title><g id="Layer_4" data-name="Layer 4"><g id="Flip"><path d="M94.83,191.1l4.47-1.38c-2.65-4.1-.84-7.67,1-11.37,2.67-5.5,5.07-11.13,7.66-16.66,2.22-4.75,4.54-9.44,6.84-14.15.49-1,1.06-2,2-3.72l-16.87-4c-1.56,9.38-2.76,18.38-4.62,27.25s-4.49,17.89-6.69,26.84c-2,8.23-2.13,16.33,1.9,24.11,3,5.88,3.1,6.72,1.32,15.35-2.84-2.22-5.58-3.87-7.68-6.11-8.9-9.45-8.63-9.47-5.68-21.63,1.19-4.91,1.34-10.07,1.9-15.13.75-6.77,1.45-13.56,2.15-20.34a47.2,47.2,0,0,0,.64-7.65q-.67-11.56-1.88-23.11c-.14-1.31-1.52-2.5-2.35-3.72-1.07-1.56-2.16-3.1-3.54-5.08l-3.69,1.22c-3.43-3.15-1.36-6.79-1-10.19.06-.53,1.49-1.16,2.36-1.3,1.54-.25,3.15,0,4.7-.24,2.71-.33,4.14-1.6,5.36-4.48,3.57-8.42,1.06-16.64.43-25.07-3.64.86-7.12,2.09-10.67,2.36-2,.15-5.4-.86-5.82-2.12-.56-1.72.57-4.67,2-6.21a58.09,58.09,0,0,1,9.39-8.09c1.12-.8,8.37-2.29,9.44-2.76,1.34-.59,3.33-1.38,3.56-2.41A9.42,9.42,0,0,0,90.48,66c-1.39-3.17-3.16-6.18-4.76-9.26a18.52,18.52,0,0,1-1.06-2.2c-.61-1.67-2.09-4-1.48-4.91,1-1.47,3.26-2.48,5.16-2.86,2.43-.49,5-.13,7.54-.19,4-.09,7.34,1.25,9.49,4.73,3.46,5.64,1.67,17.74-3.19,22.24l22.07,9.29c3.39-8.6,2.94-17.07-2.4-26.23l3.75,1.68c-.29-2-.53-3.77-.78-5.51l.74-.3,1.46,3,.27-2.32c4,1.1,4.82,4.12,4.93,7.59.17,5.52.31,11.05.49,16.57,0,1.29.32,2.57.36,3.85.36,10.19-2.22,12.09-11.7,8.9-4.16-1.39-8.43-2.47-13.26-3.88,6.1,6.86-.84,12.63-1.3,19.08a80.1,80.1,0,0,0-.52,11c.08,1.26,1.86,3.07,3.2,3.46,5.05,1.46,5.5,2,3.89,6.5,4.64,4.08,9.07,8,13.56,11.9,3,2.56,2.76,5.28.89,8.38-4.27,7.1-8.72,14.11-12.48,21.47-1.47,2.89-1.52,6.6-1.73,10-.06.89,1.56,2.08,2.64,2.78,1.66,1.08,3.75,1.58,5.23,2.84,1,.85,1.37,2.53,1.79,3.91a40.54,40.54,0,0,1,.8,4.67C122.31,194.31,100.6,194.46,94.83,191.1Zm16.87.51.16-1.09c-6.08-3.27-6.08-3.27-9.69.19Z"/></g></g></svg>