<svg xmlns="http://www.w3.org/2000/svg" viewBox="0 0 200 250"><title>Artboard 34</title><g id="Layer_4" data-name="Layer 4"><g id="Flip"><path d="M123,191.61l-7.9-3.2-16.56,6.08-.64-1.25,1.32-2.85c-1-1.38-2.62-2.59-2.74-3.93-.3-3.35-.57-6.93.3-10.11,2.76-10.11,2.21-20,1.06-30.38A124.11,124.11,0,0,0,88,108.53a21.74,21.74,0,0,1,.5-18.77c1.4-2.84.32-4.36-2.36-5.12-3-.86-6.09-1.51-9.12-2.35a9.05,9.05,0,0,1-4.63-2.65c.47-.18,1-.61,1.41-.51,4.78,1.18,9.56,2.39,14.31,3.69,2.63.72,4.23-.1,4.57-2.83.62-5.16.8-10.27-2.16-15.33-.33.72-.52,1.19-.74,1.64q-1.23,2.48-2.48,4.94c-1.64-1.15-3.91-2-4.8-3.54a40.64,40.64,0,0,1-3.89-9.9C77,51.18,81.22,46.72,85.23,42.47c.88-.94,3.15-.73,4.79-.76,1.81,0,3.62.29,5.76.48C94.67,37.1,93.64,32.53,92.69,28c-.9-4.36,2.21-10.1,6.22-11.64,4.37-1.68,9.18-.69,10.7,3.36,1.07,2.84.07,6.5-.14,9.78a6,6,0,0,1-1,2.82c-1.93,2.89-2.55,6.55-.1,8.5,1.84,1.47,5.57,1.07,8.38.73,3-.36,5.28.06,7.07,2.62a19.65,19.65,0,0,1,3.59,13.79c-.41,4-.8,8-1.59,11.9-.3,1.44-1.71,2.66-2.61,4-1.26-1-2.56-1.91-3.76-3A19.29,19.29,0,0,1,117.59,68c-.53,7.71-5.83,14.21,1.47,20.62-4.55,2.12-3.36,5.9-2.86,9.08a76,76,0,0,1-1.81,31.42c-1.61,6.14-1.07,12.84-2.63,19-2.5,9.91.29,18.16,5.77,26.18A53.52,53.52,0,0,1,122.92,185C123.57,186.61,123,188.73,123,191.61Zm-11.88-4.34c-6-3.65-7.6-2.78-9.6,4.5Zm-1.1-8.3-2.41-11.11C106,172,105.73,175.71,110.05,179Z"/></g></g></svg>