<svg xmlns="http://www.w3.org/2000/svg" viewBox="0 0 200 250"><title>Artboard 35</title><g id="Layer_4" data-name="Layer 4"><g id="Flip"><path d="M85.78,58.87c-3.39,2.22-6.67,4.82-10.33,6.6-2.09,1-4.82.69-7.26,1C68.08,63.8,67,60.71,68,58.6c3.5-7.33,7.63-14.37,11.7-21.42C81.55,34,84.56,33.51,88,34.3a15.21,15.21,0,0,0,5,.5c3.35-.38,4.48-3.35,2.4-5.9-1.32-1.61-2.83-3.07-4.06-4.74-1.54-2.08-2.38-4.28-.09-6.51a5,5,0,0,0,1.34-2c1.47-4.85,3.78-6.89,7.85-6.78,4.64.12,9.09,3.4,9.33,7.89s-.65,9.28-.94,13.94c-.08,1.14-.14,2.6.47,3.37s2.1.79,3.07.56c5.51-1.34,8.92.8,9.45,6.52.47,5.11.53,10.27.72,15.41.08,2.14-.07,4.29.09,6.42.45,6.1-.67,7.25-6.68,6.25.43,2.8.85,4.89,4.5,3a16.42,16.42,0,0,1,5.8-1.36,18.74,18.74,0,0,1,4.28.58c-.67,1.33-1,3-2.07,3.91a80.84,80.84,0,0,1-7.36,5.09,57.16,57.16,0,0,1,2.42,29.23c-1.23,6.71-3.53,13.22-5.32,19.83-.54,2-1.41,4.07-1.37,6.1A30,30,0,0,1,112,153.14c-2.77,4.24-1.56,7.51.82,11.36,1.52,2.45,1.82,5.69,2.49,8.61a13.29,13.29,0,0,1-.21,3c-.12,5.1-.21,10.21-.32,15.49-10-4.16-6.29-13-9.48-20.08-1.36,2.41-3.34,4.67-4,7.25-1.24,5.12-1.48,10.58-9.26,11.68-.58-5.87-2.22-12.17-1.35-18.11.45-3.07,5.11-5.81,8.29-8.13,4.23-3.07,5.17-4.49,3.42-9.6a70.17,70.17,0,0,1-4.27-25.21c.11-3.56-1.55-7.2-2.5-10.77-2-7.46-4-14.9-6-22.36a2.71,2.71,0,0,1-.2-1.26c2.37-8.6-3-13-8.91-17.6-5.51-4.32-4.66-6.64,1.75-9.34C88.24,65.54,90.74,63.39,85.78,58.87ZM75.89,58c9.93-2.06,11.86-4.71,8.3-10.87Zm31.34,63.86c.44-.32.68-.41.68-.5,0-6.68,0-13.36,0-20h-.69Z"/></g></g></svg>