<svg xmlns="http://www.w3.org/2000/svg" viewBox="0 0 200 250"><title>Artboard 37</title><g id="Layer_4" data-name="Layer 4"><g id="Flip"><path d="M104.52,176.78c.56,7.28-.45,14.18,2.64,20.9,2.32,5,3.15,10.5,0,16l2.52,1.76c-.28.34-.43.7-.6.7-7.55.14-15.1.38-22.65.29-2.15,0-5.54-.35-2-3.78-2.52-6.92,3.36-5.82,6.74-6.95,5.35-1.79,7.09-4,6.13-9.6-1.17-6.75-2.82-13.41-4.23-20.12-.58-2.77-2.13-4.29-4.89-5.3a50.46,50.46,0,0,1-10.71-5.32c-4.73-3.17-5.41-6.82-2.07-11.34,6.35-8.61,13-17,20-25.9-5.15-1.82-11,2-17.46-.08l7.21-2.13-5.74-2.85,6.92-1.79.06-1.42c-4.06-1-8.11-2.14-12.2-3.08-1.52-.35-3.17-.14-4.69-.49-8.62-1.94-10.28-6.65-5.25-14.12a38.07,38.07,0,0,0,4.87-9c2.31-7,5-13.16,14.37-11.74-1-3.77-2-6.93-2.73-10.16-1.41-6.44.73-11.11,6.05-13.63,6-2.86,10.15-1.85,14.68,3.65,1.81,2.19,5.87,3.61,3,7.54-1.7,2.37-3.78,4.47-6,7.06.8,2.52,2.69,4.11,5.87,4.76a28.18,28.18,0,0,1,8.42,2.93c7.65,4.42,15.26,9,22.57,13.9,3.89,2.63,3.94,5.68.78,9.55-4.07,5-8.3,9.84-12.68,14.54-1.5,1.61-1.87,2.67-.87,4.75,3.61,7.55,2.13,12.07-3.71,17.92s-10.87,12.41-16.23,18.63c3.69,2.71,6.67,5.16,9.91,7.18a36.52,36.52,0,0,0,7.31,3.23c4.56,1.57,9.33,2.66,11.67,7.68.25.54,1.65.56,3,1l-12.6,14.92-1.94-.49c-.39-2.6-1.3-5.25-1-7.79.45-4.51-.86-7.55-5-9.24a33.37,33.37,0,0,0-3.67-1.18C108.63,177.73,106.83,177.33,104.52,176.78Zm12-57.28,2.1.31,8.34-16.57-14.82-8C109.39,104.88,112.75,112.23,116.47,119.5ZM84.88,107.15l-4.69-13.9c-2.19,3-3.56,4.88-5,6.77s-2.92,3.78-4.32,5.58C76.24,113.68,80,113.77,84.88,107.15ZM93,213.47c3.89,2.54,9.08,2.44,12.17-.06-1.06-1.26-2.11-2.49-3.09-3.64Zm38.81-30.06c-6.74.65-6.86.78-5.42,6.28ZM93,154.49l-.82-.77L85.78,159C92.23,161.64,91.27,156.67,93,154.49Z"/></g></g></svg>