<svg xmlns="http://www.w3.org/2000/svg" viewBox="0 0 200 250"><title>Artboard 38</title><g id="Layer_4" data-name="Layer 4"><g id="Flip"><path d="M81.05,151.69c-3.63-2.93-5.71-7.4-11.11-7.72-1.26-.08-2.75-2.35-3.47-3.92-2.82-6.08-5.18-12.38-8.09-18.41-1.93-4-3.79-8.54-9.32-8.73-1.47-.06-3,.63-4.36,1v-5.13l9.24-1.57c0-1.32.06-3.53,0-5.73-.17-4.89,2.58-7.88,8.1-8.69,4.72-.7,8.08,1.56,9.21,6.23.17.69-.09,1.7.3,2.08,3.38,3.24,2.72,5.77-1,8.18a2.94,2.94,0,0,0-.43,2.85c.95,1.08,2.86,2.61,3.62,2.27,1.31-.59,2.92-2.52,2.85-3.79-.26-4.32,2.79-6.07,5.67-7.11,3.83-1.38,8.06-1.64,12.51-1.61-2.43,1.79-4.93,3.5-7.27,5.4-1,.76-2.19,1.91-2.22,2.92-.17,4.31,0,8.62-3.1,12.17a1.67,1.67,0,0,0,0,1.58c5.1,7,9.57,14.4,18.76,17.43,6.54,2.15,13.74,4.83,18.37,9.52s10.38,6.21,15.45,9.41c4.69,3,9.85,3.16,15.31,2.83a65.62,65.62,0,0,1,14.79,1c4.22.71,7.78,1.23,11.72-1.67,2.25-1.65,6.06-1.18,10-1.8,0,.08.44-.87.91-1.81.36.16.77.24.79.37,1,6.79,2.05,13.56,2.77,20.37.15,1.42-1.15,4.31-1.52,4.26-2.53-.29-6.72-.6-7.18-2-3.88-11.45-13.84-9.38-22.21-10.4-4.35-.53-8.88.69-13.29.39a205.59,205.59,0,0,1-21.15-2.45A71.85,71.85,0,0,1,113,165.56c-6.23-2.31-10.47.94-14.9,4.5-5.3,4.28-10.85,8.24-16.32,12.3-1.61,1.19-3.38,2.17-4.94,3.41-2.73,2.18-3,4.87-.78,7.47,3.44,4,4.89,8.46,5.4,13.66.31,3.1,2.4,6,3.48,9,1.71,4.79,3.49,9.59,4.73,14.51.39,1.57-.83,3.55-1.42,5.72l2.3,1.4c-.3.36-.46.74-.65.76-6.82.6-13.65,1.3-20.49,1.64-1.45.07-3-1.19-4.44-1.84,2-2.22-1.11-6.31,2.91-7.76.67-.24,1.31-.58,2-.8,8.58-2.7,8.69-7.09,5.3-15.09-3.49-8.27-8.08-16.08-11.71-24.3-.79-1.79-.22-4.91.9-6.69,3.11-5,7.05-9.39,10.22-14.32,1.33-2.07,2.39-5,2.08-7.29-.42-3.18-.36-5.45,2.57-7.26C80.08,154.11,80.42,152.78,81.05,151.69Zm-6.44,84.9c.07.43.13.86.19,1.29L86.68,237,83,232.51Zm113.15-73.06h-1.83c-4.65,4.19,1.79,7.33.94,11.16l1.9-.15Z"/></g></g></svg>