<svg xmlns="http://www.w3.org/2000/svg" viewBox="0 0 200 250"><title>Artboard 39</title><g id="Layer_4" data-name="Layer 4"><g id="Flip"><path d="M32.71,124.57,35.77,120,24,121.78c-.14-.39-.27-.77-.4-1.16.6-.69,1.07-1.79,1.82-2,8.49-2.59,16.07-7.16,26-6C62,113.89,72.8,117,83.63,113c3-1.11,6.8-.16,10.23-.08,4.47.11,6.53-2.88,3.91-6.54-3.24-4.5-2.13-9.21-1.37-13.75.69-4.15,4.25-5.83,8.31-6.14s5.58,2.27,7.54,5.2c3.67,5.52,1.51,9.5-2.31,13.51a2.3,2.3,0,0,0-.26,2.23,2.36,2.36,0,0,0,2.27.49c9.56-5.84,21.67-6.15,30.07-15C146.64,88.11,153.15,85,159,81.37a8.28,8.28,0,0,1,9-.06,90.64,90.64,0,0,0,8.44,3.77c-2.42,4.26-4.09-.31-6.49-.35l3.4,3.89-.3.49-11.84-5.58c-2,2.42-4.36,5.31-6.78,8.12a56,56,0,0,1-19.51,14.41c-4.41,2-8.36,5.34-12,8.66a7.67,7.67,0,0,0-2.08,8.61c.62,1.78-.27,4.19-.78,6.24-1.38,5.6-1,10.63,3.18,15.16,3.49,3.76,4.71,16.72,2,20.32-1.22,1.66-3.21,2.75-5.12,4.3,2.06,2.66,1.36,4.45-2.27,5.05,1.79,3.83,3.56,7.25,5,10.81,1.74,4.35,3,8.89,4.82,13.22,2.24,5.38,4.38,10.88,7.33,15.88,3.11,5.26,7.51,9.76,10.59,15,2,3.42,2.61,7.64,3.27,11.79-5.45-1.66-9.86-3.67-12.15-9.16-3.74-8.95-7.69-17.91-15.08-24.71a2.84,2.84,0,0,1-1-1.4c-1.49-9.38-10.23-13.15-15.2-19.83-1.47-2-4.49-4.18-.53-7.25.54-.42-1.64-6.7-3.72-7.6-3.14-1.36-3.74-3.2-4.52-5.86-1.63-5.52-2.59-10.79,1-16.07.72-1.08.18-3.33-.34-4.85-1.61-4.73-3.54-9.36-5.25-14.06-2-5.63-6.77-9.3-12.78-8.77-11.75,1-23.15.59-33.92-4.94-2-1-3.85-.92-5.35,1.66s-4.08,4.87-6.17,7.27C33.44,125.24,33.07,124.91,32.71,124.57Z"/></g></g></svg>