<svg xmlns="http://www.w3.org/2000/svg" viewBox="0 0 300 300"><defs><style>.cls-1,.cls-2{fill:#231f20;}.cls-1,.cls-3{stroke:#231f20;stroke-miterlimit:10;stroke-width:0.75px;}.cls-3{fill:none;}</style></defs><title>skateArtboard 14 copy 2logo</title><g id="Layer_3" data-name="Layer 3"><path class="cls-1" d="M58.83,181.15,43,200,45.58,202l-2.08,2.8,3.08,1.33-1.36,3.2,3.37.18L47.8,213H51l.07,2.91,3.34-.15,1,3.49A6.33,6.33,0,0,1,58.68,218s2.69.92,4.45,1.4c2.56.69,64,8.79,210.12,2.24a3.46,3.46,0,0,0,1.41-1.41c1.14-2.24-.63-6-4.52-9.29,0,0-1.71-2.73-15.52-1.91s-13.62-1.9-16.44-4-4.86-9.37-4.15-12.71,1.25-7.05,1.25-7.05l-20.59-.14s3.35,8.69.86,14.37-13,8.52-28.35,8.52H141.61s-9.37,0-10.54-9.76,1-14.09,1-14.09l-22.8,1.44s1.92,9.23.56,14.28-8.26,9.37-21.32,8.13-14.24-.38-21.88-5.21,2-18.09,6.31-18.78S58.83,181.15,58.83,181.15Z"/><path class="cls-2" d="M59.33,181.37a24.83,24.83,0,0,1-.57-10.62s-3.5-7.32-2.51-11.54S63.77,148.15,80.43,147a65.71,65.71,0,0,0,7.82-1.1c23.4-4.6,74.14-25.36,80.44-107.24,0,0-.58-1.19,4.54-.12s9.76,6.68,13.28,7.11,18.12-1.27,44.92,10.23c0,0,1.76,22.7,6.29,36.5,3.38,10.32,9,15.51,11,29.44,2.4,16.33.4,23.33-1.76,27.66s2.48,30.65.66,33.83-45.27,5.4-46.33,2.23-1.47-12.15-.64-18.12C200.68,167.37,125.73,202.36,59.33,181.37Z"/><path class="cls-3" d="M59.33,181.37a24.83,24.83,0,0,1-.57-10.62s-3.5-7.32-2.51-11.54S63.77,148.15,80.43,147a65.71,65.71,0,0,0,7.82-1.1c23.4-4.6,74.14-25.36,80.44-107.24,0,0-.58-1.19,4.54-.12s9.76,6.68,13.28,7.11,18.12-1.27,44.92,10.23c0,0,1.76,22.7,6.29,36.5,3.38,10.32,9,15.51,11,29.44,2.4,16.33.4,23.33-1.76,27.66s2.48,30.65.66,33.83-45.27,5.4-46.33,2.23-1.47-12.15-.64-18.12C200.68,167.37,125.73,202.36,59.33,181.37Z"/></g></svg>