<?xml version="1.0" encoding="utf-8"?>
<!-- Generator: Adobe Illustrator 22.0.1, SVG Export Plug-In . SVG Version: 6.00 Build 0)  -->
<svg version="1.1" id="Layer_1" xmlns="http://www.w3.org/2000/svg" xmlns:xlink="http://www.w3.org/1999/xlink" x="0px" y="0px"
	 viewBox="0 0 300 300" style="enable-background:new 0 0 300 300;" xml:space="preserve">
<style type="text/css">
	.st0{fill:#FFFFFF;}
</style>
<title>skateArtboard 14 copy 2logo</title>
<g id="Layer_3">
	<path class="st0" d="M244.9,183.9c4.3,0.7,14,14,6.3,18.8s-8.9,3.9-21.9,5.2c-13,1.3-20-3-21.3-8.1s0.6-14.3,0.6-14.3l-22.8-1.4
		c0,0,2.1,4.3,1,14.1s-10.5,9.8-10.5,9.8h-45.6c-15.4,0-25.9-2.8-28.4-8.5s0.9-14.4,0.9-14.4l-20.6,0.1c0,0,0.4,3.8,1.2,7.1
		s-1.3,10.6-4.1,12.7s-2.6,4.8-16.4,4s-15.5,1.9-15.5,1.9c-3.9,3.3-5.6,7.1-4.5,9.3c0.3,0.6,0.8,1.1,1.4,1.4
		c146.1,6.6,207.5-1.5,210.1-2.2c1.8-0.5,4.5-1.4,4.5-1.4c1.2,0.2,2.3,0.6,3.3,1.3l1-3.5l3.3,0.1l0.1-2.9h3.2l-0.8-3.5l3.4-0.2
		l-1.4-3.2l3.1-1.3l-2.1-2.8l2.6-2l-15.8-18.9C259.2,181.1,240.6,183.2,244.9,183.9z"/>
	<path class="st0" d="M117.4,167.5c0.9,6,0.4,14.9-0.6,18.1s-44.5,1-46.3-2.2s2.9-29.4,0.7-33.8s-4.2-11.4-1.8-27.7
		c2-13.9,7.6-19.1,11-29.4C84.9,78.7,86.7,56,86.7,56c26.8-11.5,41.4-9.8,44.9-10.2s8.2-6,13.3-7.1s4.5,0.1,4.5,0.1
		c6.3,81.8,57,102.6,80.4,107.2c2.6,0.5,5.2,0.9,7.8,1.1c16.7,1.1,23.2,8,24.2,12.2s-2.5,11.5-2.5,11.5c0.5,3.5,0.4,7.1-0.6,10.6
		C192.3,202.4,117.3,167.4,117.4,167.5z"/>
	<path class="st0" d="M117.4,167.5c0.9,6,0.4,14.9-0.6,18.1s-44.5,1-46.3-2.2s2.9-29.4,0.7-33.8s-4.2-11.4-1.8-27.7
		c2-13.9,7.6-19.1,11-29.4C84.9,78.7,86.7,56,86.7,56c26.8-11.5,41.4-9.8,44.9-10.2s8.2-6,13.3-7.1s4.5,0.1,4.5,0.1
		c6.3,81.8,57,102.6,80.4,107.2c2.6,0.5,5.2,0.9,7.8,1.1c16.7,1.1,23.2,8,24.2,12.2s-2.5,11.5-2.5,11.5c0.5,3.5,0.4,7.1-0.6,10.6
		C192.3,202.4,117.3,167.4,117.4,167.5z"/>
</g>
</svg>
