<?xml version="1.0" encoding="utf-8"?>
<!-- Generator: Adobe Illustrator 22.0.1, SVG Export Plug-In . SVG Version: 6.00 Build 0)  -->
<svg version="1.1" id="Layer_1" xmlns="http://www.w3.org/2000/svg" xmlns:xlink="http://www.w3.org/1999/xlink" x="0px" y="0px"
	 viewBox="0 0 300 300" style="enable-background:new 0 0 300 300;" xml:space="preserve">
<style type="text/css">
	.st0{fill:#FFFFFF;}
</style>
<title>skateArtboard 14 copy 2logo</title>
<g id="Layer_3">
	<path class="st0" d="M58.8,181.1L43,200l2.6,2l-2.1,2.8l3.1,1.3l-1.4,3.2l3.4,0.2l-0.8,3.5H51l0.1,2.9l3.3-0.1l1,3.5
		c1-0.7,2.1-1.1,3.3-1.3c0,0,2.7,0.9,4.5,1.4c2.6,0.7,64,8.8,210.1,2.2c0.6-0.3,1.1-0.8,1.4-1.4c1.1-2.2-0.6-6-4.5-9.3
		c0,0-1.7-2.7-15.5-1.9s-13.6-1.9-16.4-4s-4.9-9.4-4.1-12.7s1.2-7.1,1.2-7.1l-20.6-0.1c0,0,3.4,8.7,0.9,14.4s-13,8.5-28.4,8.5h-45.6
		c0,0-9.4,0-10.5-9.8s1-14.1,1-14.1l-22.8,1.4c0,0,1.9,9.2,0.6,14.3s-8.3,9.4-21.3,8.1s-14.2-0.4-21.9-5.2s2-18.1,6.3-18.8
		S58.8,181.1,58.8,181.1z"/>
	<path class="st0" d="M59.3,181.4c-1-3.5-1.1-7.1-0.6-10.6c0,0-3.5-7.3-2.5-11.5s7.5-11.1,24.2-12.2c2.6-0.2,5.2-0.6,7.8-1.1
		c23.4-4.6,74.1-25.4,80.4-107.2c0,0-0.6-1.2,4.5-0.1s9.8,6.7,13.3,7.1s18.1-1.3,44.9,10.2c0,0,1.8,22.7,6.3,36.5
		c3.4,10.3,9,15.5,11,29.4c2.4,16.3,0.4,23.3-1.8,27.7s2.5,30.6,0.7,33.8s-45.3,5.4-46.3,2.2s-1.5-12.1-0.6-18.1
		C200.7,167.4,125.7,202.4,59.3,181.4z"/>
	<path class="st0" d="M59.3,181.4c-1-3.5-1.1-7.1-0.6-10.6c0,0-3.5-7.3-2.5-11.5s7.5-11.1,24.2-12.2c2.6-0.2,5.2-0.6,7.8-1.1
		c23.4-4.6,74.1-25.4,80.4-107.2c0,0-0.6-1.2,4.5-0.1s9.8,6.7,13.3,7.1s18.1-1.3,44.9,10.2c0,0,1.8,22.7,6.3,36.5
		c3.4,10.3,9,15.5,11,29.4c2.4,16.3,0.4,23.3-1.8,27.7s2.5,30.6,0.7,33.8s-45.3,5.4-46.3,2.2s-1.5-12.1-0.6-18.1
		C200.7,167.4,125.7,202.4,59.3,181.4z"/>
</g>
</svg>
