<svg xmlns="http://www.w3.org/2000/svg" viewBox="0 0 200 250"><title>Artboard 46</title><g id="Layer_4" data-name="Layer 4"><path d="M143.41,123.73a36.66,36.66,0,0,0-4.39,1.92c-4.64,2.76-9.16-.3-13.69-.09-9.18.42-18.33,1.44-27.5,2.12-4.71.36-9.44.53-14.53.8,5.07,8.29,9.93,16.36,20,19.54a43.68,43.68,0,0,1,12.07,5.69c2.86,2,4.69,5.54,7,8.42.83,1.06,1.52,2.24,2.38,3.28,4.53,5.46,8.94,11,13.71,16.27,2.55,2.8,5.74,5,8.61,7.52,2.38,2.08,4.66,4.26,7.06,6.3,3.14,2.67,6.07,6.86,9.61,7.49,6.12,1.09,7.73,4.8,9.14,9.56a9.45,9.45,0,0,0,1.36,2.59c3.74,5.49,6.46,11.18,3.38,18.07-.27-.2-.76-.86-1.26-.88-7.17-.19-10.1-5-12.09-10.92-2.43-7.2-7.53-12.38-13.44-16.66C138.64,196,126.29,187.59,114.07,179c-2-1.44-3.94-3.09-5.42-4.26-5,4.63-9.92,9.11-14.74,13.7-5,4.74-4.7,6.49.94,10.2a18.74,18.74,0,0,1,5.08,4.84c5.06,7.34,9.82,14.88,14.81,22.27,2.73,4.05,2.82,8.34,1.63,13.06l3,1.31c-.24.52-.32.94-.47,1-10.32,1.66-20.56,2.42-30.6-1.7,1.55-4.78,3.82-7.05,8.26-7.73s5.25-3.25,3.88-7.51a27.11,27.11,0,0,0-7.81-12.56c-4-3.58-7.11-8.21-10.73-12.26-2.74-3.06-3.06-6.44-2-10.17.19-.67.42-1.33.63-2l5.15-16.23-5.48-2.12,7.12-6.48c-4.17-2-7.71-4.31-11.58-5.49-6.31-1.91-12.84-3.11-16.53-11.08-2.25,3.52-4.05,5.76-5.24,8.3-3.47,7.38-8.75,11.67-17.27,11.45-3.87-.09-7.76.38-11.89-.21l3-1.83H22.4l-.18-.53,2.53-1.09-3.61-.33c.22-.57.25-1.14.5-1.26,4.3-2,8.51-5.23,13.18-.53,1.5,1.5,2.94.95,4.63-.6,4.14-3.8,5.82-8.35,6.89-13.81.83-4.24,3.92-8,6-12.08-7.56-4.69-10.11-17.28-4-23.71,3.61-3.82,8.64-4.3,13.48-3.85,2.75.26,4.86,2.29,4,5.7-1.19,4.63-2.46,9.25-3.84,14.45a24.23,24.23,0,0,0,4.18-1.73c6.07-4,12.72-5.08,19.89-4.72,10,.5,20.09.37,30.12.84,5.65.27,11.07,2.15,17,.68,3-.76,6.67.92,10,1.5Z"/></g></svg>