<svg xmlns="http://www.w3.org/2000/svg" viewBox="0 0 200 250"><title>Artboard 47</title><g id="Layer_4" data-name="Layer 4"><path d="M104.33,158.94c-6.64-5-10.23-13.14-19.55-14.45.32-.15,0-.1-.15.09-5.31,8.57-12.74,9.18-21.52,6.25C56.37,148.58,49.43,147,42,144.94l3.68-1.41-6.41-1.28L43.2,141l-3.11-.9c.27-.43.42-1,.66-1,4.36-.9,8.61-2.85,12.44,2,1.58,2,5,3.18,7.72,3.43,4.41.41,8.92-.18,13.37-.51a3.3,3.3,0,0,0,2.32-1.38c2.3-4.15,5.64-8.14,2.55-13.4a12.39,12.39,0,0,1-1-3.61c-.58-2.58-.34-5.53-3.82-6.54a3.06,3.06,0,0,1-1.55-2.34c-.26-5.5-1.08-11.13-.18-16.46.68-4,5.38-4.47,9-4.61s5.43,2.37,6.64,5.44c.63,1.63,1.71,3.16,2,4.83a6.77,6.77,0,0,1-.92,4.31c-.74,1.16-2.28,1.83-4.44,3.42,4.74,2.76,8.57,5.47,12.77,7.34,7.07,3.14,11.41,7.74,11,16a4.27,4.27,0,0,0,2,3.16c2.3,1.25,5,1.75,7.3,3,4.17,2.38,8.23,5,12.15,7.76a80.45,80.45,0,0,1,6.78,5.9c2.18,1.94,2.67,4.11,1.14,6.75-.53.91-1.06,2.3-.74,3.14,1.88,5,4.12,9.77,6,14.71a12.84,12.84,0,0,0,8,8,4.62,4.62,0,0,1,1.53.68A157,157,0,0,0,181.57,209c2.1,1.06,3.06,4.35,4.82,7l2.55-.7.68.69c-4.54,5.75-9,11.54-13.67,17.2-1.27,1.55-2.94,2.52-3.44-.75,0-.31-.46-.79-.71-.8-5.72-.2-3.32-4.09-2.78-6.65,2.21-10.46,1.35-12.81-7.61-18.73a7,7,0,0,0-1.08-.64C144.49,199,132,188.05,121,175.21a13,13,0,0,0-1.43-1.26c-8.33,4.61-16.53,9.05-24.62,13.67-3.92,2.23-3.74,3.53-1.68,7.36a29.7,29.7,0,0,1,3.43,10.49c.72,6.35,1.84,12.16,6.09,17.41a26.87,26.87,0,0,1,5.79,15.72l2,.14c-.3.68-.43,1.34-.61,1.35-7.87.52-15.74,1.1-23.62,1.35-1.18,0-3.54-1.91-3.43-2.18.76-1.89,1.59-4.37,3.17-5.2,7.63-4,7.66-3.86,5-12.05q-5-15.28-9.72-30.62c-1.1-3.54-.9-7,1.67-9.86,2.13-2.39,4.38-4.7,6.69-6.91s4.27-3.82,4.79-7.36c.29-2,3.51-3.56,5.49-5.22C101.28,161,102.69,160.11,104.33,158.94Zm77.11,56.83c-1.48,4.11-2.61,7.23-3.82,10.6,3-.87,7.95-6.06,7.34-7.84C184.6,217.48,182.94,216.89,181.44,215.77Z"/></g></svg>