<svg xmlns="http://www.w3.org/2000/svg" viewBox="0 0 200 250"><title>Artboard 48</title><g id="Layer_4" data-name="Layer 4"><path d="M92.31,231.07c-6-1.56-8.65-6.63-12.27-10.54-1.7-1.84-3.26-3-1.8-7.06,2.58-7.24,2.24-15.52,3.12-23.36q1.08-9.72,2.13-19.44A38.34,38.34,0,0,0,84,164c-.58-8.49-1.36-17-2-24.24-2.29-2.74-3.93-4.72-5.85-7l-4.44,1.66v-11.1a57.38,57.38,0,0,0,8-1.06,5.78,5.78,0,0,0,3.6-2.75c2.17-5.36,3.3-10.92,2-16.78-.61-2.85-.75-5.8-1.07-8.39a116.22,116.22,0,0,1-11.85,2A5.49,5.49,0,0,1,68.24,94c-.57-1,.06-3.49,1-4.47a68,68,0,0,1,10.67-9.36c2.36-1.55,5.76-1.46,8.61-2.38,1.35-.44,3.24-1.29,3.56-2.36a7.85,7.85,0,0,0-.76-4.92c-1.44-3.2-3.24-6.25-4.91-9.36a16.36,16.36,0,0,1-1.14-2c-.54-1.55-1.78-3.64-1.2-4.6a7.13,7.13,0,0,1,4.62-2.73,46.65,46.65,0,0,1,8.2-.18c3.92,0,7.07,1.52,9,5.12,3,5.85,1.33,16.41-3.38,20.94l21.41,9c2.76-8.29,3.26-16.46-2.59-25l3.73.93c-.25-1.63-.47-3.11-.69-4.58,5.33.22,7.14,2.19,7.15,7.15,0,5.52.49,11,.49,16.58a69,69,0,0,1-.84,10.75c-.38,2.46-2.27,3.42-4.73,2.71-5.88-1.68-11.74-3.41-17.85-5.19a10.64,10.64,0,0,1,1.22,3.28c.1,2.38.37,5-.45,7.12-2.34,6-3.72,11.94-3.06,18.36.22,2.09.76,3.24,3.09,3.62,5,.81,5.37,1.69,3.91,6.13,4.57,4,8.93,7.84,13.3,11.66,2.55,2.23,2.58,4.69.92,7.47-4,6.7-8.25,13.29-11.79,20.23-1.56,3.08-1.85,6.89-2.28,10.42-.1.82,1.48,2.08,2.52,2.77,1.62,1.06,3.62,1.58,5.12,2.76a6.87,6.87,0,0,1,1.89,3.44,31.35,31.35,0,0,1,.5,5.13c-1.61,1.92-21.25,2.18-28.18-.94l4.42-1.81c-3.06-4-.66-7.47,1.13-11.06,2.28-4.6,4.43-9.27,6.61-13.92,2.47-5.26,4.8-10.58,7.39-15.76,1-2,1.87-3.68-1.17-4.35-4.73-1.06-9.49-2-13.45-2.83-1.59,9.34-2.92,18.65-4.82,27.85-1.67,8.11-3.92,16.11-6,24.14s-2.09,16,1.84,23.53C93.49,221.59,94.72,226,92.31,231.07Zm19.62-39.43c-5.73-4-5.73-4-10.18-.83Z"/></g></svg>