<svg xmlns="http://www.w3.org/2000/svg" viewBox="0 0 200 250"><title>Artboard 50_1</title><g id="Layer_4" data-name="Layer 4"><path d="M116.33,65.39c.31,3.93,1.49,4.58,4.68,3.19,2.76-1.2,6-1.28,9.87-2-1.34,6.24-5.92,7.52-9.69,9.81,5.08,15,3.94,29.81-1.59,44.31a54.51,54.51,0,0,0-2.9,13.7,35.16,35.16,0,0,1-4.39,12.48c-2.14,3.93-2,7.22.76,10.37,2.5,2.88,3.49,5.95,2.53,9.66a9.6,9.6,0,0,0-.21,2.08q-.18,7.42-.33,14.85l-1.88.38c-1.71-2.91-4-5.64-5-8.77-1-3.32-.75-7-1-10.56l-1.32-.34c-1.26,2.21-3.18,4.29-3.67,6.65-1,5.09-1.6,10.16-8.35,11.65A33.8,33.8,0,0,1,92,165c.58-2.9,4.68-5.61,7.78-7.37,4-2.27,4.94-5.24,3.56-9A74.66,74.66,0,0,1,99,123.15c0-4.43-2.36-8.82-3.47-13.28-1.75-7-4.74-14.13-4.59-21.15.14-6.67-2.14-10.31-7.2-13.37a16.38,16.38,0,0,1-2.48-2.25c-4.08-3.81-3.45-6.51,1.95-8.25,6.8-2.19,8-4.86,4-9-3.66,2.26-7.13,4.94-11,6.68-5.75,2.56-7.84.67-6.75-5.53a10.7,10.7,0,0,1,1.14-3.13c2.95-5.55,5.83-11.14,9-16.57s4.63-5.88,10.88-5c1.88.27,4.42.11,5.79-1,4.36-3.42-.51-6.27-2-7.69-3-3-4.8-5-1-8.37.19-.16.23-.48.34-.74,2.59-6.31,5.12-8.07,9.76-6.79,5.51,1.52,8.21,6.19,7.17,12.4-.53,3.11-1.21,6.21-1.52,9.35-.26,2.64,1.42,3.4,3.77,2.88,5.34-1.18,8.63.51,9,5.55.66,8.19.86,16.43.91,24.66C122.75,66.71,119.85,66.76,116.33,65.39ZM77.75,54.74c9-1.47,11.21-4.52,7.83-10.39ZM107.91,117h.64V96.41h-.64Z"/></g></svg>