<svg xmlns="http://www.w3.org/2000/svg" viewBox="0 0 200 250"><title>Artboard 50</title><g id="Layer_4" data-name="Layer 4"><path d="M117.3,75.48c-.59,3.26-1,6.57-1.84,9.76-1,3.6,3.06,7.1,2.41,8.28a14.91,14.91,0,0,0-2,8.39c.34,7.08.48,14.16.67,21.25a13.26,13.26,0,0,1-.26,2.5c-1.85,10.68-4.52,21.31-5.23,32.06-.35,5.27,2.59,10.91,4.66,16.13,1.43,3.57,4.38,6.54,5.82,10.12,1,2.48.59,5.52.81,8.32l-7.8-1.77L98.94,196.3l-.68-1.17c.53-1,1.06-1.95,1.58-2.89-4-3.26-4-7.53-2.82-11.69,2.16-7.46,4.07-15.19,2.53-22.7-2.46-11.91-1-24.54-7-35.84-4.71-8.8-7.57-18.08-2.85-28.08.35-.73-1.08-3.13-2.16-3.56-3-1.18-6.17-1.67-9.26-2.51-1.54-.42-3-1-5.29-1.77,1.21-.76,1.71-1.32,2.05-1.24,4.54,1.07,9.1,2.11,13.58,3.42,2.7.78,4.41.32,4.87-2.63.79-5,.68-9.94-2.16-14.88-.35.6-.54.87-.67,1.17q-1.17,2.66-2.32,5.33c-1.67-1.25-3.88-2.17-4.91-3.83A30.1,30.1,0,0,1,80,65c-1.34-5.41,1.55-12.61,6.13-15.43,1.27-.78,3.15-.75,4.75-.78a58,58,0,0,1,6.14.62c-.85-2.44-1.51-4-2-5.67-1.41-5.2-3.11-10.41,0-15.6,3.46-5.67,11.13-6.2,14.66-.9a6.74,6.74,0,0,1,1.07,4.23,24.74,24.74,0,0,1-2.11,8c-1.57,3-2.41,6.45-.08,8.37,1.75,1.44,5.4.91,8.17.71s5.62-.1,6.76,2.75c1.53,3.8,3.08,7.79,3.4,11.8s-.66,8.33-1.41,12.44c-.27,1.47-1.54,2.74-2.35,4.1-1.34-1-2.7-1.95-4-3a5,5,0,0,1-.86-1.26Zm-6.47,114.09c-4.59-4.61-6.38-3.09-8.68,3.86Zm-.57-8.12c-.92-4.34-1.63-7.67-2.34-11C106,174.46,106.24,178,110.26,181.45Z"/></g></svg>