<svg xmlns="http://www.w3.org/2000/svg" viewBox="0 0 200 250"><title>Artboard 51</title><g id="Layer_4" data-name="Layer 4"><path d="M130,192.59c-.71-.28-1.34-.77-1.89-.7-3.79.52-7-.15-9.91-3-4.85-4.75-8.31-10.07-9.3-16.88-.25-1.76-.72-3.48-1.17-5.62-2,5.26-3.89,10-5.68,14.81a6.07,6.07,0,0,0-.61,3.22c1.93,8-.55,15-3.89,21.69-6.83-7.83-4.51-16.37-1.36-25A11.35,11.35,0,0,0,97,177.5c.36-13,.7-25.93.87-38.91a7.49,7.49,0,0,0-1.71-4.38,44.07,44.07,0,0,0-6.4-6.62c-5.42-4.37-8.18-9.48-5-17.28-5.94-.88-11.24-2.08-16.58-2.33-3.67-.16-4.62-1.87-4.79-4.86C63.1,97.75,64.56,93,67.06,90c3.64.17,6.23.22,8.82.43,3.19.25,6.41.47,9.57,1,2.61.44,4.15-.08,4-3s-.26-6.13-.74-9.14c-1-6-2.34-11.94-3.25-17.94s2.19-8.2,8.9-5.74c-.39-1.7-.26-3.42-1-4.13-3.72-3.36-2.66-12.33.64-15.22,3.13-2.75,8.8-2.7,10.68.9a34.2,34.2,0,0,1,3,10.61c.17,1.12-1.66,2.54-3,4.36a24.72,24.72,0,0,1,1.25,3.9,36.93,36.93,0,0,1,.05,5.45c2.29.19,4.9.85,7.38.51,4.79-.66,8.23.43,9.65,5.16,1.81,6.08,6.86,9.53,10,14.43,1.67,2.56,3.28,5.56,3.59,8.51.38,3.56-2,4.54-4.66,2.06s-5-5.62-7.46-8.48c-.7-.81-1.37-1.65-2.61-3.14v4.69L115,82.39c.91,7.19-3.61,13.59,0,20.86,1.35,2.73.59,6.75.12,10.08-1.09,7.73-3,15.35-3.8,23.1-.49,4.57.33,9.31.77,13.95.4,4.28.93,8.56,1.69,12.79a16.13,16.13,0,0,0,2.27,6.4c3.76,5.3,8.1,10.18,11.77,15.53C129.13,187.09,129.25,189.94,130,192.59Z"/></g></svg>