<svg xmlns="http://www.w3.org/2000/svg" viewBox="0 0 200 250"><title>Artboard 52</title><g id="Layer_4" data-name="Layer 4"><path d="M132.27,187.17l-12,13.89-1.85-.56c-.25-2.54-.83-5.11-.69-7.63.21-3.7-1.08-6.36-4.46-7.69-2.7-1.06-5.58-1.68-9-2.68.4,6.59-.54,12.68,2.14,18.69,2.14,4.8,3.48,10,.24,15.27l2.41,1.89-.08,1c-6.93,0-13.87.1-20.79-.1-1.28,0-2.51-1.29-3.76-2,2.25-1.77-1-5.9,2.94-6.94.54-.14,1.07-.33,1.61-.47,9-2.44,9.94-3.8,8.24-13-.89-4.8-2.17-9.53-3.21-14.3a7.2,7.2,0,0,0-5.32-5.75A38.72,38.72,0,0,1,80,172.67c-5.1-3.28-5.78-6.68-2.14-11.58,5.72-7.69,11.74-15.18,18.29-23.59l-15.51,1-.1-.89L86.39,136l-6-3.14a31.09,31.09,0,0,0,4.83-.49,7.6,7.6,0,0,0,2.11-1.52,7.46,7.46,0,0,0-2.18-1.38c-4.6-1-9.28-1.61-13.83-2.75-7.15-1.79-8.38-4.84-5-11.43,2.44-4.83,5-9.61,7.17-14.55S80,94.65,84.75,94.67c-.91-3.51-1.89-6.65-2.51-9.86-1.06-5.5,1-9.45,5.76-11.75,5.23-2.51,9.21-1.65,13.06,2.82,5.11,5.92,5,7-.84,12-2.1,1.8-1.18,5.23,2.14,5.73,10.74,1.62,18.33,9.23,27.41,13.94,7.13,3.71,7.23,6.76,2.06,12.79-3.9,4.55-7.78,9.1-11.74,13.73a52.66,52.66,0,0,1,2,4.92c1.53,5,.13,9-3.63,12.85-5.63,5.74-10.71,12-16,18,3.57,2.63,6.38,4.94,9.43,6.86a29.43,29.43,0,0,0,6.42,2.72c4.35,1.45,8.84,2.58,11,7.34C129.51,187.14,130.71,187,132.27,187.17Zm-20.84-79.54c-2.52,7.42.17,18.91,5.58,22.65,2.61-5.09,5.17-10.07,7.81-15.24Zm-25.27,10.9c-.72-2.08-1.4-4-2.08-6s-1.33-3.89-2.32-6.78l-8.55,11.44C78.46,124.73,81.53,124.54,86.16,118.53ZM101.92,213l-8.2,3.24c0,.32.06.63.08.94h11.72C103.86,215.26,102.91,214.17,101.92,213Zm-9-51.61c-1.86,1.78-3.71,3.55-6.07,5.79C91.26,167.57,91.26,167.57,92.89,161.41Z"/></g></svg>