<svg xmlns="http://www.w3.org/2000/svg" viewBox="0 0 200 250"><title>Artboard 53</title><g id="Layer_4" data-name="Layer 4"><path d="M42.23,118.59V114.3l9-1.35c0-1.34,0-3.49,0-5.64-.1-4.82,2.49-7.53,8-8.35,4.4-.65,7.51,1.51,8.66,5.91a8.78,8.78,0,0,0,1.32,3.35c1.92,2.27,1.42,3.85-.7,5.64-1,.81-2,2.67-1.71,3.5.47,1.16,2.28,2.54,3.4,2.44a4.25,4.25,0,0,0,2.8-3.06c.3-6,4.34-7.44,9.18-8.2a36.43,36.43,0,0,1,8.51-.82c-2.47,1.83-5.06,3.51-7.34,5.55a8.32,8.32,0,0,0-2,3.81c-1,3.24-1.73,6.54-2.5,9.83-.19.77-.45,1.85-.08,2.36,4.84,6.79,9.22,13.75,18,16.67a57.75,57.75,0,0,1,18.32,9.56,61.52,61.52,0,0,0,8.31,5.92c8.13,4.67,16.54,6.88,26.07,4.9,3-.63,6.54,1,9.79,1.72,3.66.84,6.8.83,10.25-1.6,2.26-1.6,5.89-1.26,8.91-1.79l.36,1c.57-1,1.15-2,1.73-3.06l.88,0c.83,6.72,1.77,13.42,2.39,20.16.13,1.44-1.09,4.32-1.4,4.29-2.46-.31-6.54-.58-7-1.94-3.84-11.12-13.56-8.86-21.71-10.2a10.23,10.23,0,0,0-2.92.07c-13.42,1.7-26.49.62-39.06-4.73-7.64-3.25-13.62-1-19.27,4.9-3.76,4-8.81,6.7-13.33,9.93-1.7,1.21-3.57,2.18-5.26,3.4-3.07,2.23-3.55,5-1,7.87,3.3,3.74,4.65,8,5,13,.22,2.77,2,5.42,3,8.13,1.72,4.52,3.71,9,5,13.61.48,1.78-.69,4-1.21,6.54l2,1.17c-.18.31-.3.72-.45.74-6.52.63-13,1.38-19.59,1.73-1.52.08-3.12-1.23-4.69-1.9,1.86-2.15-1-6.2,3-7.48.67-.22,1.3-.51,2-.75,8-3,8.18-6.08,5-14.17S64,201.2,60.52,193.17c-.8-1.84-.15-5,1-6.86a102.73,102.73,0,0,1,9.66-13.16c2.28-2.65,3-5.29,2-8.43-.71-2.32-.31-3.91,1.79-5.35,2.7-1.85,2.58-3.84,0-6-2.44-2-4.2-4.67-8-4.83-1.24-.05-2.79-2.18-3.5-3.69-2.73-5.79-4.95-11.83-7.81-17.55a21.93,21.93,0,0,0-6-7.85C48,118.19,44.81,118.82,42.23,118.59ZM179.44,178l2.19-.09-1.23-10.72C174.16,171.23,180.63,174.39,179.44,178ZM79.55,233.79l-8.25,4.05c0,.39.09.77.13,1.16l11.06-.59Z"/></g></svg>