<svg xmlns="http://www.w3.org/2000/svg" viewBox="0 0 200 250"><title>Artboard 54</title><g id="Layer_4" data-name="Layer 4"><path d="M34.88,128.37l2.71-4.65-10.9,1.84c-.2-.45-.41-.9-.62-1.36A32.93,32.93,0,0,1,30,121.6a32,32,0,0,1,7.15-2.94c4.41-.93,9-1.94,13.42-1.81,6.62.2,13.2,1.49,19.82,2.05,2.32.2,4.69-.43,7.05-.63,5.25-.46,10.51-.82,15.76-1.37,1.65-.18,4.35-.5,4.65-1.39.55-1.67,0-3.93-.62-5.72-2.81-7.43-2-17.19,5.66-18.09a9.5,9.5,0,0,1,6.5,1.59c5,4,5.05,10.69.78,15.65-.58.69-1,1.51-2.22,3.38a34,34,0,0,0,5.07-.9c3.26-1.19,6.39-2.71,9.67-3.83,6.39-2.19,12.2-5,17.41-9.63a91.87,91.87,0,0,1,17-11.39c2.15-1.17,5.6-.62,8.26,0,2.92.69,5.62,2.36,8.62,3.69-2.45,3.56-4,.17-6.52-.72l3.7,4.79-11.23-5.24A57.66,57.66,0,0,0,154.65,94a60,60,0,0,1-22.89,17.19,30.77,30.77,0,0,0-9.32,6.82c-2.31,2.31-3.8,5.26-2.53,9.09.58,1.76-.25,4.11-.76,6.1-1.39,5.35-.9,10.11,3,14.41,3.3,3.6,4.71,15.68,2.23,19.43-1.16,1.76-3.31,2.89-5.19,4.45,1.73,2.42,2.29,4.57-2.26,4.58,1.34,2.88,2.47,5.11,3.41,7.41,3.49,8.47,6.79,17,10.41,25.44a56.29,56.29,0,0,0,5.16,9c3,4.51,6.75,8.62,9.3,13.37,1.47,2.76,1.22,6.45,1.77,9.84-7.4-1.84-10.44-6.78-13.31-12.73-3.35-6.94-8.22-13.15-12.45-19.67-.53-.82-1.52-1.52-1.65-2.38-1.29-8.6-9.36-12-13.78-18.11a11.42,11.42,0,0,1-2.36-6.47c.57-.88,1.84-2.23,1.61-2.57-1.61-2.37-1.43-6.28-5.5-6.7a2.56,2.56,0,0,1-1.92-1.3c-1.52-6.12-4.59-12.16-.48-18.58.82-1.29.5-3.71,0-5.38-1.39-4.38-3.28-8.6-4.81-12.94-2.13-6.05-6.59-9.23-13-9-8.49.28-17.25,2-25.17-2.14-7.2-3.76-12.61-3.36-16.6,4.26-.35.67-1.4,1-2.12,1.46Z"/></g></svg>