<svg xmlns="http://www.w3.org/2000/svg" viewBox="0 0 200 250"><title>Artboard 55</title><g id="Layer_4" data-name="Layer 4"><path d="M82.92,235.06l3.34,3.5c-9.26,0-17.4.09-25.53-.07-2,0-4.86-.46-1.94-3.61.19-.2,0-.89-.16-1.27-1.34-2.85.39-4.21,2.57-5.32a23,23,0,0,1,2.38-.93c9.67-3.73,8.73-7.23,5.58-15.33-3.65-9.35-8.64-18.19-13.17-27.2-1.59-3.15-.68-5.8,1.13-8.32,3.74-5.2,7.35-10.52,11.47-15.4a9.42,9.42,0,0,0,2-9.41c-.77-2.62-.55-4.57,2-6.22,2.82-1.86,3.16-4,.2-6.41s-5.11-5.88-9.87-5.83c-1.85,0-3.72-2.33-6.09-4-3.39,2.3-8.23,5.76-13.25,8.91-4.52,2.84-9.05,5.83-14,7.86-5.45,2.26-10.57,4.6-14.52,9.22-2.17,2.53-5,4.51-8,7.15l-.4-3.77-2.59,3.2-.55-.25,1.39-4.37H2.63c0-.41,0-.78.1-.87,11.66-7.57,23.57-14.8,34.91-22.83,5.84-4.14,10.73-9.65,15.84-14.75.69-.69.24-2.67.07-4-.4-3.07-.85-6.14-1.5-9.17-.2-.89-1.06-2.17-1.8-2.32-2.94-.58-5.39-.73-6.81-4.49-1.07-2.81-2.21-4.89-1.08-8,.67-1.81-.32-4.16,0-6.18,1-6.13,5.6-8.06,10.54-8.55V56.36l1.31-1,1.35,2.48,2.51-2.28c.75.27,1.82.33,2.28.89a7,7,0,0,1,1.8,3.57,4.75,4.75,0,0,1-1.69,3.32c-4.78,3.91-3,8.47-1.17,12.79a5.08,5.08,0,0,0,4.15,2.42c3.54-.53,5.76.58,6.31,3.94s-1.4,5.31-4.86,5.59a7.18,7.18,0,0,0-1.11.28L61,95.86c4.33,4.24,9.1,8.79,13.71,13.49A57.65,57.65,0,0,1,81,116.8c3.82,5.47,8.11,10.14,14.66,12.5,5.82,2.1,11.55,4.53,17.14,7.19,2.22,1,3.92,3.16,5.91,4.73,10,7.84,20.22,14.55,34,13.06,5.51-.59,11.3.34,16.83,1.32,4.4.78,8.11,1.34,11.89-2.08,1.59-1.44,4.78-1.13,7.26-1.59,1.88-.35,3.78-.65,6.67-1.14.62,7.13,1.44,15.39,2,23.65.13,1.94-.18,4.72-3.25,1.88-.1-.09-.26-.26-.33-.23-6.33,2.7-6.28-3.18-8.67-6.14-1.69-2.1-4.22-4.42-6.68-4.82-6.54-1.06-13.3-1.9-19.87-1.45-14.09,1-27.93.84-41.08-5-10.45-4.61-18.57-2-25.86,6.5-3.07,3.56-7.55,5.93-11.51,8.68-2.09,1.45-4.49,2.46-6.64,3.83-6.11,3.88-6.21,6-2,12a23.49,23.49,0,0,1,3.71,9.3c.92,5.5,2.24,10.41,5.34,15.39C83.39,219,83.83,225.31,85,231,85.22,232.05,83.76,233.49,82.92,235.06Zm-15.51-.24c4.66,3.28,10.92,2.8,13.4,0C76.46,227.38,72.68,235,67.41,234.82Zm121.7-77.08,4.11,9.28c3-2.27,2.48-9.39-1.08-12.57Z"/></g></svg>