<svg xmlns="http://www.w3.org/2000/svg" viewBox="0 0 200 250"><title>Artboard 57</title><g id="Layer_4" data-name="Layer 4"><path d="M78.35,156.91c-3-1.86-4.35-3.44-.18-5.25,4.92-2.14.54-4.45-.21-6.36a4.85,4.85,0,0,1,.47-1.05c5.23.75,8.6-3.77,13.27-4.76,1.16-.24,3-2.88,2.65-3.76-2.31-6.48-5.08-12.79-7.49-18.61-4.78,5.29-9.21,10.76-14.27,15.56-3,2.88-7.25,4.48-10.57,7.11-1.88,1.48-3.15,3.8-4.5,5.87-2.64,4.06-5.53,7.77-11.09,10,.27-5.24,1.36-9.52,4.45-12.87,4.91-5.32,10.15-10.33,15.25-15.46a4.83,4.83,0,0,1,1.27-1.13c8.71-4.08,10.07-12.51,12.65-20.45,1.11-3.42,3.62-6.59,6.13-9.28,2.17-2.32,3.49-3.29.43-6.26-2.29-2.22-3.38-6.05-4.14-9.35a28.69,28.69,0,0,1-.29-9.7C83,64.18,91.17,60,97,63.49c1.64,1,2.63,3.11,3.77,4.81.66,1,.73,2.49,1.55,3.18,3,2.56,1.84,5,.06,7.45-1.28,1.76-2.92,3.28-4.07,5.11A3.87,3.87,0,0,0,98,87.36a3.6,3.6,0,0,0,3.12,1.39c5.74-1.86,10.19.12,15.09,3.21,4.59,2.9,10.32,3.94,15.4,6.12,7.37,3.16,7.66,5.41,1.49,10.37-1.74,1.4-3.94,2.23-5.82,3.49-4.31,2.88-8.74,5.64-12.78,8.88-3.08,2.47-2.35,6.79,1.36,11,.94,1.07,2.07,2,3,3,6.88,7.68,7.07,15.5,1.24,24-1.67,2.42-2.4,5.72-2.82,8.72-1,7.59-1.79,15.23-2.35,22.87-.1,1.46.91,3.25,1.9,4.51,3.13,4,6.76,7.55,9.69,11.65,3.6,5,6.39,10.41,12.26,13.75,3.89,2.21,6.94,6.31,9.62,10.09,1.5,2.11,1.49,5.29,2.32,8.68l2.87.22a16.71,16.71,0,0,1-2.24,1.7c-7.58,3.77-14.44,10.24-24.82,7,2-2.47,3.11-4.4.59-6.46-.36-.3.4-2.34,1-3.35,4.08-6.77,3.61-11.05-2.23-16.6-5.47-5.19-10.78-10.6-16.66-15.28-7-5.55-9.64-12.71-9.95-21.2-.21-5.95-.52-11.9-.76-17.28-8.67,3.94-17.37,7.89-26.43,12a12.13,12.13,0,0,0,1.73,2.94c4.86,4.41,6.36,10.26,7.39,16.38a37.6,37.6,0,0,0,5.26,14.56c2.91,4.58,3.66,10.62,4.91,16.12.35,1.53-.86,3.42-1.55,5.84l3.31,2.1c-3.55.38-5.84.78-8.13.85-6.53.2-13.07.38-19.6.32-2.44,0-5.17-.55-2-3.81.23-.23.45-.79.33-1-2.46-4.29.64-5.48,3.69-6.75,6.73-2.83,9.25-8.13,6.26-14.78-3.25-7.25-7.16-14.21-10.78-21.3-.77-1.52-1.61-3-2.32-4.56-4.09-9-3.52-12.12,3.87-18.55C68.87,164.35,73.5,160.83,78.35,156.91Zm47.22-51.79-.43-1.28L112,99.75V113.6l1.09.9ZM80.75,232.39c.41-.48.82-1,1.24-1.43l-8.51,4.28c2.54,2.47,8.49,2.45,10.2,2.54ZM147.59,240l-.6-1.35-9.29,3.71C142.12,245,144.68,244.08,147.59,240Zm-17.14,3.8-.58,1.24c1.14.61,2.31,1.78,3.4,1.7,1.32-.09,2.56-1.23,3.84-1.91l-.6-1.46Z"/></g></svg>