<svg xmlns="http://www.w3.org/2000/svg" viewBox="0 0 200 250"><title>Artboard 58</title><g id="Layer_4" data-name="Layer 4"><path d="M119,60.61c-.68,5.12-1.69,10.23-1.86,15.37-.06,1.64,2.7,3.24,3,5.06.21,1.17-2.38,2.68-2.45,4.1-.17,3.22.81,6.5.68,9.72-.37,8.89-.88,17.78-1.71,26.64-.55,5.89-1.76,11.71-2.64,17.57-.37,2.53-.31,5.18-1,7.59-2.78,9.33.51,17.21,5.34,24.87a77.31,77.31,0,0,1,6.07,10.73c1,2.43,1,5.35,1.36,8.05l-1.18,1-8.79-3.39c-5,3-10.77,6.05-18.14,6l2.21-3.68c-5-3.61-4.43-8.68-3.08-13.33a70.51,70.51,0,0,0,2.85-24.42c-.2-3.06-1.53-6.06-1.59-9.1-.29-14.34-4.41-27.57-10.3-40.53a23.32,23.32,0,0,1,.49-20.3c1.46-3,.29-4.63-2.52-5.41-3.42-.94-6.9-1.62-10.32-2.53-1.58-.42-3.08-1.14-5.23-2,1-.75,1.52-1.37,1.85-1.29,4.9,1.07,9.87,2,14.64,3.47,4.13,1.3,5.61.86,6.18-3.43.7-5.27.57-10.49-2.48-15.66a22.76,22.76,0,0,1-.77,2.17c-.82,1.65-1.69,3.28-2.53,4.93-1.69-1.06-4-1.74-4.93-3.26A45.77,45.77,0,0,1,77.75,49c-2-7.17,2.29-12.25,6.77-16.84,1.12-1.15,3.93-.8,6-.87a58.36,58.36,0,0,1,6.24.5,63.71,63.71,0,0,1-2.22-6.23c-1.34-5.7-3.41-11.42,0-17.16,3.85-6.56,12.61-7.15,16.51-.9a8.19,8.19,0,0,1,.85,5.57c-.79,3.54-2.59,6.87-3.29,10.42-.42,2.16-.4,5.6.89,6.63,1.82,1.45,5.13,2,7.56,1.52,6.52-1.19,8-1.34,10.37,4.58,1.79,4.41,2.17,9.54,2.43,14.39.19,3.48-.65,7.08-1.46,10.53-.38,1.61-1.78,3-2.72,4.45-1.44-1.14-2.92-2.25-4.31-3.45a4.74,4.74,0,0,1-.78-1.44Zm-6.56,126.3c-6.31-3.89-7.52-3.28-10.62,5Zm-3.79-21.62c-2.46,5.78-1.52,9.72,2.53,12.23Z"/></g></svg>