<svg xmlns="http://www.w3.org/2000/svg" viewBox="0 0 200 250"><title>Artboard 59</title><g id="Layer_4" data-name="Layer 4"><path d="M123.42,88.84c5.82,18.56,3.78,36.49-4,54a9.35,9.35,0,0,0-.73,4.09,33.66,33.66,0,0,1-5.53,20.25c-2.59,4-1.84,7.7,1,10.93a11.4,11.4,0,0,1,2.9,10.22,6.49,6.49,0,0,0-.13,3c1.75,5.76.13,11.08-1.71,15.77-9.76-3.78-5.38-13.35-8.27-21.67-1.92,3.09-3.88,5.19-4.64,7.66-1.68,5.42-1,12.13-9.5,13.41a22.18,22.18,0,0,1-1.14-3.61c-.42-2.52-.32-5.15-1-7.61-2.14-8.31,2.6-12.92,8.73-16.81,4.68-3,5.72-5,3.91-10.13a76.55,76.55,0,0,1-4.62-27.14c.08-4.37-2.1-8.77-3.21-13.16-2.09-8.25-4.18-16.51-6.2-24.78a7,7,0,0,1-.15-3.79c1.85-4.84-1-7.27-4.39-9.72a61.65,61.65,0,0,1-7.14-6.08c-2.68-2.64-1.83-6,1.66-7.46a36.4,36.4,0,0,0,5.76-2.56c4.15-2.65,4.17-4,.34-8.08-3,2.07-5.74,4.68-9,6.12-3,1.32-6.56,1.37-9.87,2,.26-3.54-.36-7.46,1-10.54A166.89,166.89,0,0,1,77.6,44.38c3.29-5.51,5-6,11.3-4.68a12.41,12.41,0,0,0,5,.08c3.16-.72,3.93-3.7,1.8-6.21-1.5-1.77-3.1-3.47-4.53-5.29-.6-.76-1.45-2-1.18-2.64,1.81-4,3.26-8.49,6.06-11.75,2.63-3,7.08-2.53,10.19-.07,2.17,1.71,4.58,4.48,4.83,7,.47,4.8-.55,9.74-.89,14.63-.08,1.17-.39,2.88.21,3.39a4.81,4.81,0,0,0,3.76.77c5.35-1.39,8.92.34,9.64,5.88.79,6,.7,12.18,1,18.28.09,2.12-.09,4.27.17,6.38.77,6.24-.86,7.88-7.34,6.42.54,1.67,1,3,1.44,4.42,3.61-.92,6.83-1.92,10.13-2.52,1.34-.24,2.85.39,4.28.62-.61,1.33-.89,3.05-1.9,3.92C129.12,85.09,126.33,86.79,123.42,88.84ZM84,52.78l-9.1,11.84C84.55,63.45,86.88,60.5,84,52.78Zm24.37,80.45.88.09V111.07h-.88Z"/></g></svg>