<svg xmlns="http://www.w3.org/2000/svg" viewBox="0 0 200 250"><title>Artboard 60</title><g id="Layer_4" data-name="Layer 4"><path d="M81.62,64.79c-.83-5.47-2-10.65-2.31-15.88-.33-4.95,3.2-7.74,7.32-9.46S95.19,37.09,99,40.7c2,1.93,4.15,3.78,6,5.83,1.75,1.9,0,6.67-3,9.42a28.3,28.3,0,0,0-3.19,4.2c1.86,1.36,3.58,3,5.63,4,2.78,1.31,6.06,1.66,8.71,3.17,8.36,4.77,16.7,9.61,24.69,15,4.43,3,4.4,6,.72,10.5-4.92,6.06-10.1,11.91-15.35,18.06.51,1.09,1.24,2.44,1.82,3.87,2.77,6.83,1.09,11.82-4.2,17.21-6.32,6.44-12,13.52-18,20.37,4.41,3.25,8,6.13,11.89,8.67a21.19,21.19,0,0,0,5.82,2.34c5.29,1.55,10.65,2.86,13.3,8.58.23.49,1.76.36,3,.56-4.37,5.63-7.74,12.09-15.33,16.55-.51-3.77-1.39-6.59-1.15-9.32.44-4.87-1-8-5.53-9.74a41.72,41.72,0,0,0-4.07-1.28c-1.76-.47-3.55-.85-6.16-1.47,1.13,7.6-.46,14.83,2.78,21.93,1.69,3.71,1.77,8.24,2.12,12.44.13,1.55-1.07,3.21-1.79,5.15l3.14,2a6.26,6.26,0,0,1-1.84.81c-7.24.25-14.5.67-21.74.58-4.61-.06-3.25-.71-4.21-4.9-1.57-6.8,3.1-5.79,6.37-6.68,6.59-1.8,8.58-3.81,7.56-10.56A226.84,226.84,0,0,0,91.9,164.7c-.36-1.42-2.22-2.73-3.69-3.51-3.37-1.81-7.08-3-10.38-4.91-7.25-4.21-8.12-8.26-3.1-14.92,6.56-8.69,13.38-17.19,20.42-26.21-5.71-2.08-11.89,2.14-19.05,0l7-1.87.16-1-4.93-2.17v-.87a21.55,21.55,0,0,0,4.21-.5,10.94,10.94,0,0,0,2.76-1.89,11.71,11.71,0,0,0-2.67-1.47c-6.85-1.64-13.72-3.15-20.57-4.75-3-.71-3.93-2.83-3-5.52,1.18-3.28,2.73-6.42,4.16-9.61C64.78,82,66.7,78.62,67.9,75,70,68.66,73.59,64.6,80.82,65,81.33,65,81.86,64.72,81.62,64.79Zm31.57,15.09c-2.87,8.76.29,22.52,6.52,26.44,3.05-5.91,6.05-11.74,9.14-17.75ZM83.84,92.75c-1.66-5-3.14-9.34-5-14.87-3.88,5.06-7,9.1-10,13.09C74.06,98.53,77.22,100.87,83.84,92.75ZM105.72,206.6c-1.33-1.53-2.46-2.84-3.54-4.07l-9.68,3.88C95.86,208.93,101.62,209.05,105.72,206.6ZM92.53,143.23l-.72-.78-7.12,6.47C91.72,151.07,90.59,145.52,92.53,143.23Zm41.67,30.86c-7.22,1.18-7.57,1.58-5.94,6.85Z"/></g></svg>