<svg xmlns="http://www.w3.org/2000/svg" viewBox="0 0 200 250"><title>Artboard 61</title><g id="Layer_4" data-name="Layer 4"><path d="M68.22,233.72l2.69,1.55-.09,1.33c-8.14.33-16.28.77-24.42.93-2,.05-2.21-.78-2.46-3.45-.66-6.8,4.22-6.75,7.84-8.63,5.17-2.67,6.24-8,3.06-14.32-4.42-8.73-8.94-17.43-12.9-26.37-.88-2-.34-5.44.87-7.4a125,125,0,0,1,11.08-15.14c2.41-2.84,3.12-5.63,2.1-8.95-.81-2.66-.39-4.5,2.06-6.18s3.27-3.76.26-6.09-4.92-5.8-9.49-5.82c-1.21,0-2.83-2.23-3.55-3.78-3-6.42-5.69-13-8.57-19.46a29.54,29.54,0,0,0-2.87-5.2c-4.06-5.61-6.24-6.19-12.32-3.67V97.39l9.84-1.6c.07-1.24.33-3.43.28-5.6-.14-6.06,2.49-9.14,8.67-9.92,5.53-.69,8.78,1.71,10,7.39.06.28-.08.66.07.84,3.21,3.84,3.14,7.1-1.41,9.94-.37.23,0,2.77.79,3.45.92.84,3.05,1.56,3.82,1,1.24-.81,2.6-2.74,2.48-4.07-.41-4.63,3.42-5.39,6-7.34.29-.22.82-.13,1.24-.2A56.64,56.64,0,0,1,75.32,90c-2.49,1.83-5.27,3.38-7.38,5.59-1.47,1.54-2.21,3.89-2.93,6-1,3-1.77,6.09-2.56,9.16-.26,1-.82,2.47-.37,3.08,5.2,7,9.44,15,18.69,17.93a120.25,120.25,0,0,1,16.9,7c2.26,1.14,3.76,3.79,5.64,5.72a8.49,8.49,0,0,0,2.13,1.86c5.87,2.86,11.62,6.13,17.76,8.25,3.58,1.24,7.82.53,11.76.79,5.19.33,10.44.36,15.53,1.25,4.47.78,8.25,1.41,12.43-1.71,2.39-1.78,6.46-1.3,9.78-1.84.13.36.27.72.41,1.07l1.78-3.47,1.23-.06c.81,8.25,1.72,16.49,2.35,24.75.15,2-.61,3.66-3.35,1.94-.92-.58-3,.63-3.84,0a10.79,10.79,0,0,1-3.59-4.38c-1.81-4.24-4.83-6.81-9.33-7-9-.48-18.1-1.1-27.13-.78-8.39.29-16.44-.46-24.35-3.22-3.76-1.31-7.68-2.17-11.39-3.59-7.09-2.71-11.95.83-17,5.11-5.26,4.47-11,8.38-16.54,12.49-1.49,1.09-3.18,1.9-4.65,3-4.42,3.3-4.74,5.53-1.2,9.9A23.39,23.39,0,0,1,61,201.25c.47,3.77,2.68,7.31,4,11,1.8,5.18,3.67,10.35,5,15.65C70.35,229.4,69,231.33,68.22,233.72Zm-5.22-4-9.4,4.51c3.91,2.15,9.07,1.68,12-.89ZM174.69,155c-4.08,3.31-3.59,7.85.27,12.89l1.26-.15C175.74,163.77,175.26,159.76,174.69,155Z"/></g></svg>