<svg xmlns="http://www.w3.org/2000/svg" viewBox="0 0 200 250"><title>Artboard 62</title><g id="Layer_4" data-name="Layer 4"><path d="M27.62,114.83,31,109.77l-12.4,2.16-.71-1.61c1.54-.95,3-2,4.64-2.84a40.72,40.72,0,0,1,7.66-3.26A66.28,66.28,0,0,1,43,102c4.94-.27,9.91.3,14.87.5a3.78,3.78,0,0,1,1.27,0c7.84,3.67,15.55,1.16,23.38-.15,3.58-.61,7.36,0,11,0,4.39.06,6.6-3,4-6.56-3.34-4.56-2.27-9.31-1.86-14s3.85-7.35,8.74-7.77c4.29-.36,6,2,8.67,6,4,6,.94,9.66-2.45,13.83-.52.64-.44,1.75-.63,2.65.91.16,2,.73,2.71.44,8.27-3.33,16.54-6.69,24.7-10.29,1.88-.83,3.28-2.67,5-3.89,7-4.87,13.78-10,21.1-14.29,2.2-1.29,6-.59,8.81.13,3.37.85,6.48,2.71,9.74,4.14-3,4.09-4.7.19-8.06-1.43l4.39,5.19-.36.46L165.2,70.81c-2.07,2.53-4.51,5.66-7.09,8.67A53.71,53.71,0,0,1,137,94.94c-6.16,2.43-11.77,5.81-14.6,12.34a8.08,8.08,0,0,0-1,2.34c-.37,5.42-1,10.86-.8,16.27.11,3,1.48,5.92,2.58,8.76,1.92,4.94,5,9.64,5.79,14.72a11.1,11.1,0,0,1-4,10.21c-1.23.94-2.32,2.07-3.51,3.15l1.58,3.7-3.6,1.62a2.86,2.86,0,0,0,0,1.13c2.16,4.63,4.5,9.19,6.5,13.9,1.32,3.11,1.91,6.53,3.26,9.62,3,6.84,6.08,13.67,9.54,20.29a60,60,0,0,0,7,10.12c4.05,4.9,8.06,9.67,5.1,16.73-4.61-2-9.35-4.21-11.81-10.17-4-9.56-8.26-19.07-16.12-26.32a3.56,3.56,0,0,1-1.17-1.76c-1.5-9.8-10.69-13.65-15.8-20.65a39.67,39.67,0,0,1-3.18-6.24c1.38-1.33,3.11-2.8,3-2.95-2-2.69-1.68-7.2-6.26-7.85-.83-.11-2.13-.92-2.25-1.57-.91-5.26-1.61-10.56-2.31-15.85a2.34,2.34,0,0,1,.46-1.62c3.66-4.43,1.85-8.54-.31-12.92-1.62-3.29-2.49-7-3.67-10.45-2.29-6.72-7.59-10.59-14.61-9.9-12.25,1.21-24.13.56-35.35-5.17-2.6-1.34-4.56-.81-6.27,2.09s-4.24,4.92-6.43,7.35Z"/></g></svg>