<svg xmlns="http://www.w3.org/2000/svg" viewBox="0 0 200 250"><title>Artboard 20</title><g id="Layer_4" data-name="Layer 4"><g id="Toeloop"><path d="M189.49,155.12c.61,8,3.53,16.56,2,25-2.61,0-4.29.37-5.67-.11s-3.26-1.58-3.71-2.83c-2.18-6.1-6.28-8.8-12.7-8.78-7,0-14-.86-20.88-.46-10.65.63-20.92-.5-30.62-4.92-10.16-4.63-18.15-2.7-25.75,5.71-4.27,4.73-10.51,7.75-16.06,11.24-6.81,4.27-7,5.85-2.74,12.42a25.85,25.85,0,0,1,3.49,9.93,36.79,36.79,0,0,0,4.51,12.64c2.67,4.76,3.29,10.72,4.53,16.22.44,1.94-4.48,4.15,1.07,6.05l-.84,1c-7.8,0-15.6.08-23.4-.05-2.11,0-1.65-1.21-2-3.24-1.06-6.66,3.92-6.48,7.32-8.25,5.28-2.74,6.38-6.51,3.28-13.07q-6.13-13-12.64-25.75a6.91,6.91,0,0,1,.59-8c3.4-4.61,6.62-9.37,10.29-13.75a10.44,10.44,0,0,0,2.29-10.34c-.78-2.54-.14-4,2-5.35,2.91-1.87,3.25-3.89.29-6.37-2.68-2.25-4.6-5.18-8.83-5.29-1.54,0-3-2.64-4.92-4.47-4.19,2.84-8.65,6.07-13.32,9s-9.31,6.21-14.42,8c-7,2.5-12.05,6.83-16.2,12.86l-.74-1.87-3.37,4.28v-4.21L9.8,165.58l-.53-.25,1.16-4H8.09c.26-.49.35-1,.63-1.14,11.17-7.16,22.6-13.94,33.42-21.58,5.3-3.73,9.55-9,14.07-13.75.6-.63.15-2.43-.06-3.64-.53-3.08-1.2-6.14-1.84-9.34-4.88-1.43-6.25-6-6.27-11.44,0-3.26-.23-6.84,1-9.69s4.11-4.78,6.58-7.46V64.73l2.77,3.39,2.84-3.9c1.2,2,2.55,3.59,3.08,5.4.25.89-.86,2.34-1.63,3.33-3.9,5-3.59,9,.73,13.38a51.35,51.35,0,0,1,6.18,7.76c1.45,2.19.36,4-1.68,5.44-3.82,2.68-3.83,4.19-.66,7.71q9.12,10.11,18,20.39c4.08,4.67,8.92,7.85,15.25,8.39.42,0,1,0,1.24.26,5.09,5,13.82,4.77,17.36,12.06.31.64,1.34,1,2.08,1.34,3.32,1.69,6.75,3.18,10,5,6.06,3.56,12.45,4.34,19.41,3.83,5-.37,10.19.51,15.22,1.3,3.81.59,7,.81,10.48-1.81,2-1.51,5.34-1.17,8.07-1.72C185.82,156,187.26,155.65,189.49,155.12ZM70.39,234.66c2.34,3,8.88,2.79,11.47,0C77.94,227.87,74.38,234.81,70.39,234.66ZM184,161.81c1.45,3.15,2.74,5.95,4.1,8.92,2.39-3.5,1.71-9-1.26-12Z"/></g></g></svg>