<svg xmlns="http://www.w3.org/2000/svg" viewBox="0 0 200 250"><title>Artboard 22</title><g id="Layer_4" data-name="Layer 4"><g id="Toeloop"><path d="M10.79,152.12c-.16-8.87,5.26-12.47,11-16,9.27-5.79,18.8-11.26,25.71-20.15,1.51-1.94,3.93-3.19,6-4.66a35,35,0,0,1,3.61-1.88c-6.3-2.35-8.62-5.76-8.93-12.1-.1-2.14-.32-4.28-.63-6.39-.65-4.51,1.72-7,5.56-8.5,4.78-1.87,7.93-1.15,10.81,2.22a8.39,8.39,0,0,0,3,2.45c3.77,1.48,4.69,5.82,1.62,8.52-.75.65-1.88,1-2.43,1.71s-1.24,2.55-.91,2.87c.77.73,2.56,1.51,3.18,1.1C78,95,89.3,97.54,99.64,95s21-3.88,31.38-6.11c5.56-1.19,9.7.47,13.63,5.18-3,0-5.76.64-8.05-.13-4.69-1.6-8.44-1.07-12.92,1.38-5,2.75-11,3.79-16.55,5.56-6.49,2.07-13,4-19.47,6.24-3.54,1.25-3.7,4.44-2.78,7.51a89.25,89.25,0,0,0,3.74,10.47c2.73,6.23,8.25,9.89,13.83,12.9,5.8,3.13,11.38,6,13.76,12.7a7.44,7.44,0,0,0,1.53,2c4.54,5.33,8.87,10.88,13.72,15.92,3.71,3.86,8.1,7.06,12.16,10.58a32.12,32.12,0,0,1,5,4.6c5.58,7.48,11.09,14.76,19.88,19.13,2.84,1.41,4.17,5.82,6.24,8.82a21.66,21.66,0,0,0,2.39,2.28c-2.84,5-6,10.9-9.44,16.54-.8,1.31-2.66,2-4.16,2.8a2.93,2.93,0,0,1-2.37-.09c-1.71-1-3.88-8.08-2.9-9.94,5.22-10,1.9-14-6.53-21.68-13.4-12.14-28.6-21.85-43.8-31.52-2.65-1.68-5.09-3.67-8.08-5.85-5.9,8.64-15.4,11.85-24.1,16.37-4.93,2.57-4.79,4.41-1.82,9.2a32.89,32.89,0,0,1,4.23,10.94c.87,4.54,1.63,8.77,4.67,12.62,3.64,4.62,4.7,10.38,4.49,16.23,0,1.2-1.12,2.37-1.85,3.82l2.47,2.24c-.32.37-.49.74-.66.75-7.14.22-14.29.53-21.43.5-1.42,0-4.13-1.55-4.06-2a30.53,30.53,0,0,1,2.47-7.4c.26-.58,1.47-.8,2.28-1.07,9-2.93,9.36-6.93,5.29-15.94C67.94,202,63.48,193.62,59.72,185c-.74-1.69,0-4.55,1-6.32,1.59-2.83,3.57-5.81,6.16-7.63,3.62-2.54,3.06-6.84,5.27-9.87.32-.42-.73-1.84-1.19-2.9l3.66-2.43c-2.89-5.83,3.64-5.31,5.34-8.56a7.8,7.8,0,0,0-1.33-2c-4.94-4.24-10.06-8.27-14.85-12.67-1.69-1.55-2.78-3.85-3.81-6a47.85,47.85,0,0,1-2-6.31c-2.39,1.41-4.33,2.46-6.18,3.65-9,5.77-17.36,12.38-27.76,15.94-3.5,1.19-5.76,5.89-8.71,8.86A39.15,39.15,0,0,1,10.79,152.12Zm60,81.16c4.74,3.32,10.49,2.76,12.67-.37C79.14,226.31,75.72,233.41,70.76,233.28Z"/></g></g></svg>