<svg xmlns="http://www.w3.org/2000/svg" viewBox="0 0 200 250"><title>Artboard 23</title><g id="Layer_4" data-name="Layer 4"><g id="Toeloop"><path d="M83.25,208.86l4.72-.33c-2.23-4.51.37-7.38,2.45-10.37,4.42-6.34,4.42-6.3-1.88-10.6a49.21,49.21,0,0,1-8.94-7.43h4.34c.44-5.8,4-9.86,8.28-12.72C101.88,161,105,153,100.36,142.16a9.46,9.46,0,0,1-.77-3.34c-.19-9.91-7.17-13.65-15.07-16.22-3.63-1.19-4.66-3.59-5.22-6.86-.48-2.77.85-4,2.94-5.49,1.55-1.11,1.9-3.78,3.3-5.26,7-7.5,3.3-16,2.4-24.19C87.3,75,86.09,69.29,85.22,63.53c-.7-4.6.76-8.19,5.75-10.23-2-2.85-3.72-5.53-5.7-8C83,42.49,84,39.06,87.47,38.08A6.89,6.89,0,0,0,90.08,37c8.26-6.93,14.83-.73,16.43,6.08.75,3.2,0,6.82-.46,10.21-.46,3.73-2.28,6.29-7.66,5.18l10.46,14.64c3.5-2.13,7.2-3.84,10.13-6.43,1.34-1.18,1.37-4.06,1.63-6.21.18-1.49-.24-3.06.2-4.74l1,2.38c.77-1.59,1.4-2.9,2-4.21,4.68,3.3,4.89,8.61.85,13.63-2.48,3.09-4.57,6.5-7,9.64-1.78,2.32-4.19,4.24-5.58,6.74A15,15,0,0,0,110.44,91a40.22,40.22,0,0,0,1.42,9.74,15.15,15.15,0,0,0,3,5c2.07,2.68,4.32,5.22,6.55,7.78,2,2.28,2.12,4.59.24,7-1.59,2-1,3.52.76,5.14a79.15,79.15,0,0,1,6.85,7.1c4.13,4.91,4.15,8.64-.29,13.28-3.26,3.4-7.21,6.13-10.48,9.51-1.51,1.56-2.36,3.88-3.14,6-1.87,5.06-3.48,10.23-5.27,15.32-1.42,4-4.6,7.77-1.7,12.45a2.63,2.63,0,0,1-.3,2.38c-5.31,6.71-4.21,10.61,2.49,16.2,1.9,1.58,3.74,4.18,4,6.5.22,2-1.38,4.89-3.09,6.11-1.27.91-4.19.23-6.06-.53-7.59-3.1-15.07-6.49-22.59-9.78C83,209.77,83.11,209.32,83.25,208.86Zm6.23.2c1.77,4,9,7,12.52,5.5-1.91-2.22-3.82-4.55-5.87-6.74a2.57,2.57,0,0,0-2.16-.59A39.5,39.5,0,0,0,89.48,209.06Zm-4.55-28c2.3,4.21,5.85,5.83,9.1,7.79l1-.67L91.72,180Z"/></g></g></svg>