<svg xmlns="http://www.w3.org/2000/svg" viewBox="0 0 200 250"><title>Artboard 24</title><g id="Layer_4" data-name="Layer 4"><g id="Toeloop"><path d="M72.53,75.15c4.61.92,9.36,1.44,13.81,2.86,4.83,1.54,6.56,1,6.57-4.1,0-4.45-.76-8.9-1.18-13.35H90.26a10.71,10.71,0,0,1-.6,2.51c-.72,1.41-1.37,3.32-2.57,3.86-.81.36-2.86-1-3.76-2C76.51,56.76,76.69,46.56,84,39c1.23-1.28,3.75-1.61,5.73-1.82s3.85.36,6.16.62c-1.15-5.22-2.16-9.79-3.17-14.36s2.17-10.3,6.41-11.9C103.7,9.8,109.19,11,110,15.23s-1,9-1.69,13.54c-.2,1.21-1.14,2.36-1.09,3.52.19,4.58,3.92,7,8.74,5.21,4.39-1.59,6.95-.12,9.18,3.62,2.81,4.72,3.15,9.71,2.52,14.92a72.63,72.63,0,0,1-1.4,9.33c-.41,1.59-1.85,2.93-2.82,4.38-1.24-1-2.52-2.06-3.71-3.17A5,5,0,0,0,117.86,65c-.63,3-1.4,6-1.87,9.1s-1.95,6.51,1.94,8.8c.48.28.61,2.39.36,2.5-4.35,2-2.21,5.77-1.81,8.45a78,78,0,0,1-1.71,31c-1.71,6.86-1.41,14.22-3,21.11a27.6,27.6,0,0,0,1.7,17.5,71.42,71.42,0,0,0,3.76,6.7c2,3.75,4.35,7.41,5.92,11.36.66,1.67-.26,4-.47,6-1.87-.43-3.77-.77-5.59-1.35a3.18,3.18,0,0,1-1.31-.94l-17,6.34L98,190.38c.47-1,.93-2.11,1.31-3-1-1.44-2.66-2.71-2.7-4a45.86,45.86,0,0,1,.75-11.78c2.25-9.45,1.73-18.66.78-28.31a135.75,135.75,0,0,0-10.45-39.94,20.72,20.72,0,0,1,.81-17.51c1.49-3,.3-4.63-2.54-5.41-3-.84-6.13-1.41-9.15-2.25a48.62,48.62,0,0,1-4.67-1.84C72.24,76,72.38,75.56,72.53,75.15Zm29.09,112.07.47,1.25,9-4.09C106.17,180.78,106.17,180.78,101.62,187.22ZM110.27,176l-2.47-11.55C106.09,168.65,105.89,172.49,110.27,176Z"/></g></g></svg>