<svg xmlns="http://www.w3.org/2000/svg" viewBox="0 0 200 250"><title>Artboard 25</title><g id="Layer_4" data-name="Layer 4"><g id="Toeloop"><path d="M115.61,205.38c-10.46-4.15-6-13.21-9.14-21-1.82,3.25-3.66,5.45-4.35,8-1.39,5.09-1.22,11-9.47,12.09-.51-6.07-2-12.61-1.16-18.82.42-3,5.08-5.81,8.39-7.74,4.07-2.39,4.88-5.34,3.44-9.31a74.24,74.24,0,0,1-4.56-26.89c.07-3.83-2-7.68-3-11.55-2-8-5.17-16-5.41-24.15-.19-6.57-1.77-10.74-7.29-13.71a7.25,7.25,0,0,1-1.27-1.16c-6.32-5.83-6.1-7.06,1.85-10.53,6-2.64,6.7-4.61,2.74-9.11-3.25,2.17-6.37,4.72-9.89,6.44-2.24,1.1-5.09,1-7.66,1.41-.06-3-1.11-6.46,0-8.94,3-6.77,6.86-13.18,10.53-19.64,2.16-3.79,5.34-5.36,9.79-3.9a10.28,10.28,0,0,0,4.62.24c3.45-.55,4.37-3.18,2.19-5.9-1.29-1.6-2.75-3.06-4-4.71-1.52-2.07-2.48-4.23-.23-6.53a6,6,0,0,0,1.51-2.35c1.37-4.68,3.84-6.75,8.06-6.59,4.58.18,9,3.52,9.27,8s-.63,9.29-.93,14c-.08,1.16-.28,2.79.35,3.38a4.35,4.35,0,0,0,3.48.5c5-1.25,8.68.75,9.11,6.12.69,8.54.89,17.12,1,25.69,0,3.68-1.54,4.29-6.9,3.21.49,1.49.89,2.72,1.3,4,3.77-.91,7.17-1.86,10.63-2.49a3.9,3.9,0,0,1,2.91,1.07c.28.26-.26,2-.88,2.54-2.69,2.28-5.55,4.35-8.5,6.62,5.66,17.38,3.45,34.42-3.89,51.09a9.38,9.38,0,0,0-.58,4.15,30,30,0,0,1-5.09,18.31c-2.58,3.92-1.88,7.39.88,10.55a10.43,10.43,0,0,1,2.65,9.89,12.17,12.17,0,0,0-.15,2.57C115.86,195.15,115.74,200.24,115.61,205.38Zm-39-135c9.33-1.11,11.6-4,8.31-10.92ZM108,135h.86V114.83H108Z"/></g></g></svg>