<svg xmlns="http://www.w3.org/2000/svg" viewBox="0 0 200 250"><title>Artboard 26</title><g id="Layer_4" data-name="Layer 4"><g id="Toeloop"><path d="M141.71,133.21c-8,4.3-16.14,8.81-24.4,13.13-3,1.59-6.4,2.52-9.41,4.12-2.6,1.37-2.46,3-.48,5.43,3.06,3.81,5.35,8.24,7.94,12.42,2.13,3.45,3.72,7.38,6.42,10.29,5.61,6,7.32,14.62,3.1,20.31l2.82,2.2c0,.38,0,.76-.07,1.14-7.81,0-15.62.15-23.43-.09-2.06-.07-6.06-.32-2-4-1.45-6.3,3.65-5.73,7.17-6.87,5.15-1.67,6.67-5,3.85-9.51-2.91-4.68-6.4-9-9.53-13.54-3.69-5.34-7.28-10.75-10.91-16.14l1-.7c-.25,0-.63-.16-.73-.05-5.87,6.5-13.94,8.42-21.82,11.11-6,2-11.44,5.65-17.07,8.67-2.53,1.37-4.91,3-7.87,4.85-5-4.39-12.46-7.08-16.23-14,5-4,9.58-4.48,15.36-2.77a25,25,0,0,0,13.82-.51c6.77-2.11,13.13-5.56,19.59-8.6a14,14,0,0,0,4.91-3.39c8.48-10.51,19.81-16.86,31.77-22.41,3.6-1.67,4.19-3.7,1-6.08a72.89,72.89,0,0,0-14.91-8.52,9.27,9.27,0,0,1-5.7-5.76c-1-2.74-2.19-5.43-3.41-8.4-7.21,2.62-13.68,5.26-20.34,7.28-3.91,1.19-8.16,1.2-12.18,2.11a114.43,114.43,0,0,0-13,3.7c-3.1,1.09-6,2.8-9.71,4.6.24-1.53.35-2.26.53-3.43l-2.75,1.93c.37-1.52.7-2.92,1-4.33L35,106.23C46.89,102.67,58.75,99,70.66,95.57c8-2.33,15.19-5.68,20.59-12.95C83.72,76.18,75,72.4,65.42,69c3-3.41,5.87-3.46,8.89-2,2.64,1.27,5.16,2.76,8.23,4.42.57-6,.81-11.21,5.6-14.95s11.12-3.32,14.49,1.85a39.74,39.74,0,0,1,2.51,5c1.22,2.59,1,4.61-2,5.87-1.39.58-2.53,1.77-4.07,2.9a49.78,49.78,0,0,0,3.68,5.22c8.63,9.5,17.37,18.91,26,28.38,2,2.25,4.16,3.35,7.49,2.77a9.88,9.88,0,0,1,6.89,1.53c4.27,3.25,8,7.18,12,10.79,1.33,1.2,2.78,2.27,3.32,2.7,0,3.39-.21,6.13,0,8.84.46,5.07-2,7.26-6.93,5.51A102,102,0,0,1,141.71,133.21Zm-30.83,65.42c3.2,2.92,9.65,2.78,12.43,0l-2.88-4.33c-1.57.85-3,1.72-4.5,2.4S112.82,197.9,110.88,198.63Z"/></g></g></svg>