<svg xmlns="http://www.w3.org/2000/svg" viewBox="0 0 200 250"><title>Artboard 27</title><g id="Layer_4" data-name="Layer 4"><g id="Toeloop"><path d="M69.91,148.24c-3.78-3.11-6-7.41-11.35-7.77-1.17-.08-2.56-2.17-3.23-3.61-2.81-6.09-5.34-12.3-8.07-18.41a25.65,25.65,0,0,0-3-5.18c-3.69-4.79-5.68-5.25-11.13-3v-5.4l9.33-1.44c0-1.43,0-3.62,0-5.81-.09-5,2.66-8,8.06-8.73,5.13-.66,8.3,1.46,9.55,6.33a8.33,8.33,0,0,0,1.34,3.41c2.15,2.4,1.18,3.94-.84,5.73-1,.89-2.24,2.92-1.87,3.58.73,1.3,2.52,2,3.86,3,1-1.47,3-3,2.87-4.41-.25-4.19,2.77-5.82,5.44-6.8,3.93-1.44,8.28-1.72,12.82-1.69-2.55,1.87-5.17,3.66-7.6,5.67-.91.75-2,2-2,3-.1,4.17.05,8.31-3,11.75a2.06,2.06,0,0,0,0,2c5,6.9,9.24,14.85,18.4,17.11a43.5,43.5,0,0,1,18.8,9.76c3.62,3.28,7.49,5.37,11.52,7.71,7.51,4.36,15.19,6,23.85,4.43,3.32-.6,7.07.5,10.51,1.33,4.31,1,8,1.57,12.09-1.59,2.17-1.69,6.05-1.2,9.16-1.69.13.34.27.68.4,1l1.59-3.26c.3.26.66.41.69.61,1,6.78,2.1,13.55,2.81,20.36.16,1.54-1.21,4.66-1.64,4.62-2.53-.25-6.71-.61-7.2-2-4.16-12-14.77-9.13-23.4-10.68-1.78-.32-3.71.14-5.56.33-11.69,1.22-23.14.55-34.15-4.05-2.1-.87-4.45-1.12-6.57-1.95-6.27-2.44-10.74.66-15.3,4.38-5.38,4.38-11.05,8.4-16.63,12.55-1.49,1.11-3.12,2-4.59,3.15-2.9,2.23-3.39,5-1,7.79a22.55,22.55,0,0,1,5.37,13.65c.21,3,2,5.83,3.16,8.74,1.75,4.62,3.82,9.16,5.11,13.91.53,2-.61,4.37-1.09,7.17l1.93,1.14c-.18.36-.27.79-.4.8-6.82.65-13.63,1.41-20.46,1.76-1.58.09-3.23-1.22-4.85-1.89,2-2.27-1.16-6.66,3.29-7.93.68-.19,1.33-.52,2-.75,8.12-2.84,8.52-6.76,5.17-14.91-3.47-8.42-8.21-16.31-11.88-24.67-.83-1.89-.22-5.16.94-7,3.08-5,7-9.4,10.23-14.3A11.8,11.8,0,0,0,65.53,159c-.31-3.32-.58-6.06,2.74-8C69,150.59,69.27,149.37,69.91,148.24Zm5.54,86.33-3.37-4.75L63.4,234l.14,1.24Zm100.94-63.25,2.33-.14-1.39-11.06C171,164.37,177.68,167.53,176.39,171.32Z"/></g></g></svg>