<svg xmlns="http://www.w3.org/2000/svg" viewBox="0 0 200 250"><title>Artboard 28</title><g id="Layer_4" data-name="Layer 4"><g id="Toeloop"><path d="M36.79,120.86l2.91-4.66-10.94,1.87-.37-1.13c.65-.75,1.17-1.93,1.95-2.2,8-2.65,15.22-8.27,24.47-5.56,5.24,1.54,10.89,1.54,16.37,2a33.68,33.68,0,0,0,5.89-.53c5.63-.52,11.27-1,16.89-1.6,1.32-.15,3.34-.51,3.7-1.4.58-1.44.67-3.91-.12-5.06-3-4.43-1.94-9.2-1.34-13.82.49-3.79,4-6.36,7.92-6.49,3.53-.12,5.09,2.42,6.92,5.35,3.48,5.59,1.4,9.55-2.1,13.62-.42.48-.29,1.53-.42,2.31.85.15,1.84.68,2.53.38,7-3,13.94-6.06,20.81-9.33,1.76-.83,3.16-2.54,4.77-3.77,6-4.6,11.9-9.53,18.26-13.53,2-1.29,5.52-.54,8.16.11s5.34,2.4,8.56,3.92l-5,3.19-9-4.63c-1.72,1.77-3.86,3.65-5.64,5.87-5.8,7.24-12.46,13-20.72,16.88-3.84,1.8-7.21,5.13-10.31,8.32A8.11,8.11,0,0,0,119,119.6c.55,1.66-.14,3.93-.6,5.83-1.43,5.87-.46,10.69,2.72,16.07,2.67,4.54,5.45,10,3,16.68-1,2.78-2.58,4.47-4,6.59-.8,1.16-.87,2.92-1.54,5.42l-2.19,1.24c1.66,3.82,3.37,7.36,4.76,11,1.58,4.21,2.72,8.62,4.34,12.81,2.17,5.63,4.23,11.39,7.07,16.64s7,9.73,9.79,15c1.81,3.43,2.27,7.7,3.52,12.3-7.37-2.06-10.68-6.46-13.11-12.66-3-7.71-6.25-15.5-12.22-21.36a4.94,4.94,0,0,1-1.64-2.37c-1.37-9.23-9.28-13-13.8-19.54a35.59,35.59,0,0,1-2.77-5.93c1.12-1.3,2.66-2.81,2.54-3-1.71-2.48-1.52-6.69-5.47-7.23-.68-.09-1.73-.71-1.85-1.28-1.41-6.4-4.47-12.74-.48-19.42.75-1.26.65-3.58.18-5.14-1.51-5-3.39-9.91-5.09-14.86-1.85-5.37-6.3-9.12-11.56-8.63-11.12,1-21.93.66-32.14-5-2-1.1-3.53-.51-4.88,1.9-1.49,2.67-3.78,4.81-5.72,7.19Z"/></g></g></svg>